G04 Layer: BottomLayer*
G04 EasyEDA v6.4.7, 2020-12-08T13:31:26--8:00*
G04 2666239171464f44b57efdd4127db657,11a6c599673c4091828b82ff80a72166,10*
G04 Gerber Generator version 0.2*
G04 Scale: 100 percent, Rotated: No, Reflected: No *
G04 Dimensions in millimeters *
G04 leading zeros omitted , absolute positions ,3 integer and 3 decimal *
%FSLAX33Y33*%
%MOMM*%
G90*
D02*

%ADD10C,0.254000*%
%ADD11C,0.270002*%
%ADD12C,0.299999*%
%ADD14C,0.499999*%
%ADD15C,0.280010*%
%ADD17C,0.609600*%
%ADD33C,1.999996*%
%ADD34C,1.499997*%
%ADD35R,1.574800X1.574800*%
%ADD36C,1.574800*%
%ADD38C,1.699997*%
%ADD39C,1.299997*%
%ADD40C,0.399999*%

%LPD*%
G54D12*
G01X23899Y42231D02*
G01X25644Y42231D01*
G01X25775Y42099D01*
G01X24026Y40105D02*
G01X23900Y40231D01*
G01X23900Y40732D01*
G01X23900Y40231D02*
G01X24232Y39899D01*
G01X26198Y39899D01*
G01X26625Y40323D01*
G01X26625Y40699D01*
G01X26624Y42100D02*
G01X26624Y40699D01*
G01X26624Y40699D01*
G54D11*
G01X17649Y31250D02*
G01X17850Y31451D01*
G01X18898Y31451D01*
G54D12*
G01X28401Y11600D02*
G01X26800Y10000D01*
G01X25500Y10000D01*
G01X23498Y11999D01*
G01X20499Y11999D01*
G01X19201Y13300D01*
G01X19201Y18100D01*
G01X16501Y20800D01*
G01X11700Y20800D01*
G01X10199Y22299D01*
G01X10199Y25101D01*
G01X13100Y27999D01*
G01X13100Y28784D01*
G01X13100Y28949D01*
G54D11*
G01X15999Y29500D02*
G01X14300Y31198D01*
G01X14300Y31451D01*
G01X17999Y29000D02*
G01X17999Y30038D01*
G01X16586Y31451D01*
G54D12*
G01X13100Y31049D02*
G01X13100Y30000D01*
G01X14174Y28923D01*
G01X14174Y28298D01*
G01X12899Y22700D02*
G01X12200Y22700D01*
G01X11799Y23099D01*
G01X11799Y24699D01*
G01X14400Y27300D01*
G01X18149Y27300D01*
G01X20100Y29248D01*
G01X20100Y30899D01*
G54D14*
G01X15022Y27950D02*
G01X17448Y27950D01*
G01X17999Y28497D01*
G01X17999Y28999D01*
G54D12*
G01X8477Y33808D02*
G01X7000Y35285D01*
G01X7000Y36399D01*
G01X7400Y36799D01*
G01X9599Y36799D01*
G01X10499Y37699D01*
G01X13449Y37699D01*
G01X28400Y7999D02*
G01X26299Y7999D01*
G54D11*
G01X14839Y6010D02*
G01X14350Y6499D01*
G01X14100Y6499D01*
G01X20100Y1900D02*
G01X20100Y3699D01*
G01X19201Y4600D01*
G01X16249Y4600D01*
G01X14839Y6010D01*
G54D12*
G01X29620Y7618D02*
G01X29918Y7618D01*
G01X30500Y8199D01*
G01X26299Y7999D02*
G01X27118Y7999D01*
G01X28560Y6558D01*
G01X23800Y4099D02*
G01X24330Y3569D01*
G01X24330Y2199D01*
G01X28489Y38100D02*
G01X29889Y36699D01*
G01X37500Y36699D01*
G01X38000Y37199D01*
G01X38000Y39099D01*
G01X35100Y41999D01*
G01X32900Y41999D01*
G01X16449Y42399D02*
G01X15199Y42399D01*
G01X14900Y42698D01*
G01X14900Y43599D01*
G01X15800Y44501D01*
G01X17799Y44501D01*
G01X18299Y44999D01*
G01X18799Y44999D01*
G01X22644Y39499D02*
G01X22600Y39455D01*
G01X22600Y38800D01*
G01X15899Y43699D02*
G01X16099Y43500D01*
G01X17549Y43500D01*
G01X24298Y34600D02*
G01X21598Y34600D01*
G01X18898Y37300D01*
G01X18898Y40450D01*
G01X18050Y41301D01*
G01X12399Y41301D01*
G01X12200Y41499D01*
G01X9998Y41499D01*
G01X5800Y37300D01*
G01X5800Y37100D01*
G01X22644Y39499D02*
G01X23144Y39499D01*
G01X21901Y44199D02*
G01X22000Y44300D01*
G01X28799Y44300D01*
G01X33569Y39530D01*
G01X33569Y38100D01*
G01X36109Y38100D02*
G01X35800Y38100D01*
G01X29000Y44900D01*
G01X21799Y44900D01*
G01X21131Y44229D01*
G01X21131Y43500D01*
G01X21630Y43499D02*
G01X21630Y43930D01*
G01X21900Y44199D01*
G01X8017Y33348D02*
G01X5800Y35565D01*
G01X5800Y37099D01*
G01X23900Y41233D02*
G01X24366Y41233D01*
G01X24900Y40699D01*
G01X23900Y41731D02*
G01X24768Y41731D01*
G01X24900Y41599D01*
G01X8476Y33808D02*
G01X8485Y33808D01*
G01X8820Y33473D01*
G01X24200Y39024D02*
G01X23924Y39299D01*
G01X23800Y39299D01*
G01X23800Y39299D02*
G01X25324Y39299D01*
G01X25599Y39024D01*
G01X25775Y42099D02*
G01X24975Y42899D01*
G01X24899Y42899D01*
G01X23900Y42231D02*
G01X22644Y42231D01*
G01X21900Y41487D01*
G01X18375Y43799D02*
G01X18375Y43524D01*
G01X19100Y42799D01*
G01X19100Y41999D01*
G01X19358Y41741D01*
G01X19900Y41741D01*
G01X17849Y42399D02*
G01X19006Y41243D01*
G01X19899Y41243D01*
G01X25775Y42100D02*
G01X25775Y40699D01*
G01X25775Y40699D01*
G01X23145Y39500D02*
G01X23145Y38555D01*
G01X23524Y38176D01*
G01X24199Y38176D01*
G01X25600Y38175D02*
G01X24200Y38175D01*
G01X22600Y2700D02*
G01X22600Y4500D01*
G01X23224Y5124D01*
G01X23400Y5124D01*
G01X14100Y5550D02*
G01X14749Y4900D01*
G01X15049Y4900D01*
G01X11800Y29399D02*
G01X12400Y29399D01*
G01X12400Y31899D01*
G01X9572Y34727D01*
G01X9396Y34727D01*
G01X10199Y30799D02*
G01X10899Y31499D01*
G01X11700Y31499D01*
G01X2094Y27608D02*
G01X2099Y28900D01*
G01X2701Y29500D01*
G01X6000Y29500D01*
G01X23400Y5774D02*
G01X22074Y5774D01*
G01X21500Y5199D01*
G01X21500Y1899D01*
G01X23400Y5774D02*
G01X23400Y6425D01*
G01X16500Y15399D02*
G01X16500Y17499D01*
G01X14214Y15399D02*
G01X13500Y16113D01*
G01X13500Y17799D01*
G54D10*
G01X21062Y23317D02*
G01X24844Y27099D01*
G01X40299Y27099D01*
G54D12*
G01X5100Y15999D02*
G01X5100Y15099D01*
G01X3800Y13799D01*
G01X5904Y27608D02*
G01X5899Y26698D01*
G01X5701Y26500D01*
G01X2200Y26500D01*
G01X1700Y26000D01*
G01X1700Y22299D01*
G01X2094Y21905D01*
G01X2094Y21791D01*
G01X2094Y27608D02*
G01X999Y26513D01*
G01X999Y17900D01*
G01X2500Y16399D01*
G01X2500Y13599D01*
G01X6699Y9398D01*
G01X6699Y7798D01*
G01X8799Y5700D01*
G01X9899Y4600D01*
G01X15800Y3599D02*
G01X15800Y3399D01*
G01X14900Y2500D01*
G01X13498Y2500D01*
G01X11400Y4600D01*
G01X9899Y4600D01*
G01X14400Y3599D02*
G01X12500Y5499D01*
G01X12500Y6099D01*
G01X12100Y6499D01*
G01X11299Y6499D01*
G01X16998Y6424D02*
G01X15876Y6424D01*
G01X15599Y6698D01*
G01X15599Y7199D01*
G01X14499Y8298D01*
G01X11799Y8298D01*
G01X11299Y7801D01*
G01X11299Y7450D01*
G01X14999Y6500D02*
G01X14999Y7100D01*
G01X14649Y7450D01*
G01X14100Y7450D01*
G01X16998Y5123D02*
G01X16374Y5123D01*
G01X14999Y6500D01*
G01X16999Y6425D02*
G01X16999Y5774D01*
G01X11299Y6499D02*
G01X10300Y6499D01*
G01X9700Y7099D01*
G01X9700Y9599D01*
G01X9300Y9999D01*
G01X8100Y9999D01*
G01X11299Y7449D02*
G01X11299Y9999D01*
G01X3699Y15999D02*
G01X3699Y18499D01*
G01X2499Y19699D01*
G01X2300Y19699D01*
G01X4099Y19699D02*
G01X3365Y20434D01*
G01X3365Y21791D01*
G01X5500Y19699D02*
G01X5500Y20299D01*
G01X4635Y21164D01*
G01X4635Y21791D01*
G01X2300Y19699D02*
G01X2095Y19904D01*
G01X2095Y21791D01*
G01X3365Y21791D02*
G01X3400Y21826D01*
G01X3400Y22699D01*
G01X3700Y22999D01*
G01X5500Y22999D01*
G01X5905Y22594D01*
G01X5905Y21791D01*
G01X11900Y29618D02*
G01X11418Y29618D01*
G01X6800Y24999D01*
G01X6800Y22686D01*
G01X5905Y21791D01*
G01X5905Y27608D02*
G01X7696Y29399D01*
G01X8600Y29399D01*
G01X7557Y32888D02*
G01X8600Y31846D01*
G01X8600Y31540D01*
G01X8600Y31540D02*
G01X8600Y29399D01*
G54D10*
G01X14699Y20100D02*
G01X8599Y20100D01*
G01X7599Y21099D01*
G54D12*
G01X7600Y24499D02*
G01X7600Y21099D01*
G01X14699Y20100D02*
G01X14699Y17600D01*
G01X14700Y17600D01*
G01X24400Y23399D02*
G01X23201Y22199D01*
G01X18800Y22199D01*
G01X18300Y22699D01*
G01X12900Y22699D01*
G54D10*
G01X21062Y18237D02*
G01X23801Y15499D01*
G01X37600Y15499D01*
G01X40001Y17900D01*
G01X21062Y20777D02*
G01X25241Y16599D01*
G01X37199Y16599D01*
G01X40001Y19398D01*
G01X17000Y26299D02*
G01X18350Y24949D01*
G01X18350Y24849D01*
G01X23600Y36699D02*
G01X27400Y36699D01*
G01X28489Y37789D01*
G01X28489Y38099D01*
G01X29300Y36000D02*
G01X28599Y35299D01*
G01X22500Y35299D01*
G01X21200Y36599D01*
G01X21100Y36599D01*
G01X28100Y35999D02*
G01X23000Y35999D01*
G01X22300Y36699D01*
G01X12287Y17488D02*
G01X10699Y15901D01*
G01X10699Y13800D01*
G01X15800Y8700D01*
G01X27801Y8700D01*
G01X30499Y11400D01*
G01X40298Y11400D01*
G01X43199Y14300D01*
G01X43199Y21900D01*
G01X11410Y15200D02*
G01X17410Y9200D01*
G01X27443Y9200D01*
G01X30242Y11999D01*
G01X39698Y11999D01*
G01X42599Y14900D01*
G01X42599Y25700D01*
G01X21062Y25857D02*
G01X23204Y27999D01*
G01X40400Y27999D01*
G01X41100Y27299D01*
G01X41100Y17799D01*
G01X40100Y16799D01*
G01X40000Y16799D01*
G01X21062Y15697D02*
G01X25560Y11199D01*
G01X26600Y11199D01*
G01X21062Y15697D02*
G01X19792Y16967D01*
G01X19792Y18491D01*
G01X16871Y21412D01*
G01X12045Y21412D01*
G01X11283Y22174D01*
G01X11283Y25183D01*
G01X12700Y26599D01*
G01X21062Y10617D02*
G01X18500Y13180D01*
G01X18500Y17999D01*
G01X16399Y20099D01*
G01X14700Y20099D01*
G01X21062Y18237D02*
G01X17300Y21999D01*
G01X12500Y21999D01*
G01X12599Y23400D02*
G01X12681Y23317D01*
G01X21062Y23317D01*
G01X9886Y14300D02*
G01X8870Y13284D01*
G01X8870Y13284D02*
G01X7346Y11760D01*
G01X6711Y11760D01*
G01X4552Y18110D02*
G01X8616Y18110D01*
G01X9886Y16840D01*
G01X9886Y14300D01*
G54D12*
G01X16998Y5774D02*
G01X20074Y5774D01*
G01X22000Y7699D01*
G01X25401Y7699D01*
G01X26869Y6228D01*
G01X26869Y2200D01*
G01X28206Y4719D02*
G01X29762Y3163D01*
G01X33580Y10093D02*
G01X35136Y8537D01*
G01X14301Y6500D02*
G01X14100Y6500D01*
G01X15800Y3599D02*
G01X16100Y3899D01*
G01X19000Y3899D01*
G01X23400Y5973D02*
G01X24626Y5973D01*
G01X25100Y5499D01*
G54D15*
G01X24160Y42731D02*
G01X23640Y42731D01*
G01X24160Y42231D02*
G01X23640Y42231D01*
G01X24160Y41731D02*
G01X23640Y41731D01*
G01X24160Y41233D02*
G01X23640Y41233D01*
G01X24160Y40732D02*
G01X23640Y40732D01*
G01X24160Y40232D02*
G01X23640Y40232D01*
G01X23144Y39760D02*
G01X23144Y39240D01*
G01X22644Y39760D02*
G01X22644Y39240D01*
G01X22143Y39760D02*
G01X22143Y39240D01*
G01X21646Y39760D02*
G01X21646Y39240D01*
G01X21145Y39760D02*
G01X21145Y39240D01*
G01X20645Y39760D02*
G01X20645Y39240D01*
G01X20160Y40242D02*
G01X19640Y40242D01*
G01X20160Y40743D02*
G01X19640Y40743D01*
G01X20160Y41243D02*
G01X19640Y41243D01*
G01X20160Y41741D02*
G01X19640Y41741D01*
G01X20160Y42241D02*
G01X19640Y42241D01*
G01X20160Y42742D02*
G01X19640Y42742D01*
G01X20630Y43760D02*
G01X20630Y43240D01*
G01X21130Y43760D02*
G01X21130Y43240D01*
G01X21630Y43760D02*
G01X21630Y43240D01*
G01X22128Y43760D02*
G01X22128Y43240D01*
G01X22629Y43760D02*
G01X22629Y43240D01*
G01X23129Y43760D02*
G01X23129Y43240D01*
G54D40*
G01X23950Y7075D02*
G01X22850Y7075D01*
G01X23950Y6424D02*
G01X22850Y6424D01*
G01X23950Y5774D02*
G01X22850Y5774D01*
G01X23950Y5124D02*
G01X22850Y5124D01*
G01X17549Y7075D02*
G01X16449Y7075D01*
G01X17549Y6424D02*
G01X16449Y6424D01*
G01X17549Y5774D02*
G01X16449Y5774D01*
G01X17549Y5124D02*
G01X16449Y5124D01*
G36*
G01X35136Y9244D02*
G01X34428Y8537D01*
G01X35136Y7830D01*
G01X35843Y8537D01*
G01X35136Y9244D01*
G37*
G36*
G01X29762Y3871D02*
G01X29054Y3163D01*
G01X29762Y2456D01*
G01X30469Y3163D01*
G01X29762Y3871D01*
G37*
G36*
G01X33580Y10800D02*
G01X32873Y10093D01*
G01X33580Y9386D01*
G01X34287Y10093D01*
G01X33580Y10800D01*
G37*
G36*
G01X28206Y5426D02*
G01X27499Y4719D01*
G01X28206Y4012D01*
G01X28913Y4719D01*
G01X28206Y5426D01*
G37*
G36*
G01X31600Y10588D02*
G01X30893Y9881D01*
G01X31883Y8891D01*
G01X32590Y9598D01*
G01X31600Y10588D01*
G37*
G36*
G01X29479Y8467D02*
G01X28772Y7760D01*
G01X29762Y6770D01*
G01X30469Y7477D01*
G01X29479Y8467D01*
G37*
G36*
G01X28418Y7406D02*
G01X27711Y6699D01*
G01X28701Y5709D01*
G01X29408Y6416D01*
G01X28418Y7406D01*
G37*
G36*
G01X23240Y42827D02*
G01X20559Y42827D01*
G01X20559Y40147D01*
G01X23240Y40147D01*
G01X23240Y42827D01*
G37*
G36*
G01X18675Y44124D02*
G01X18075Y44124D01*
G01X18075Y43475D01*
G01X18675Y43475D01*
G01X18675Y44124D01*
G37*
G36*
G01X19524Y44124D02*
G01X18924Y44124D01*
G01X18924Y43475D01*
G01X19524Y43475D01*
G01X19524Y44124D01*
G37*
G36*
G01X26075Y42424D02*
G01X25475Y42424D01*
G01X25475Y41775D01*
G01X26075Y41775D01*
G01X26075Y42424D01*
G37*
G36*
G01X26924Y42424D02*
G01X26324Y42424D01*
G01X26324Y41775D01*
G01X26924Y41775D01*
G01X26924Y42424D01*
G37*
G36*
G01X15949Y41850D02*
G01X16949Y41850D01*
G01X16949Y42950D01*
G01X15949Y42950D01*
G01X15949Y41850D01*
G37*
G36*
G01X17349Y41850D02*
G01X18349Y41850D01*
G01X18349Y42950D01*
G01X17349Y42950D01*
G01X17349Y41850D01*
G37*
G36*
G01X25924Y38724D02*
G01X25924Y39324D01*
G01X25275Y39324D01*
G01X25275Y38724D01*
G01X25924Y38724D01*
G37*
G36*
G01X25924Y37875D02*
G01X25924Y38475D01*
G01X25275Y38475D01*
G01X25275Y37875D01*
G01X25924Y37875D01*
G37*
G36*
G01X24524Y38724D02*
G01X24524Y39324D01*
G01X23875Y39324D01*
G01X23875Y38724D01*
G01X24524Y38724D01*
G37*
G36*
G01X24524Y37875D02*
G01X24524Y38475D01*
G01X23875Y38475D01*
G01X23875Y37875D01*
G01X24524Y37875D01*
G37*
G36*
G01X26075Y41024D02*
G01X25475Y41024D01*
G01X25475Y40375D01*
G01X26075Y40375D01*
G01X26075Y41024D01*
G37*
G36*
G01X26924Y41024D02*
G01X26324Y41024D01*
G01X26324Y40375D01*
G01X26924Y40375D01*
G01X26924Y41024D01*
G37*
G36*
G01X12600Y30399D02*
G01X10999Y30399D01*
G01X10999Y28399D01*
G01X12600Y28399D01*
G01X12600Y30399D01*
G37*
G36*
G01X9400Y30399D02*
G01X7799Y30399D01*
G01X7799Y28399D01*
G01X9400Y28399D01*
G01X9400Y30399D01*
G37*
G36*
G01X17500Y16399D02*
G01X15500Y16399D01*
G01X15500Y14399D01*
G01X17500Y14399D01*
G01X17500Y16399D01*
G37*
G36*
G01X15214Y16399D02*
G01X13214Y16399D01*
G01X13214Y14399D01*
G01X15214Y14399D01*
G01X15214Y16399D01*
G37*
G36*
G01X14600Y5824D02*
G01X13600Y5824D01*
G01X13600Y5274D01*
G01X14600Y5274D01*
G01X14600Y5824D01*
G37*
G36*
G01X14600Y6774D02*
G01X13600Y6774D01*
G01X13600Y6224D01*
G01X14600Y6224D01*
G01X14600Y6774D01*
G37*
G36*
G01X14600Y7724D02*
G01X13600Y7724D01*
G01X13600Y7174D01*
G01X14600Y7174D01*
G01X14600Y7724D01*
G37*
G36*
G01X11799Y7724D02*
G01X10799Y7724D01*
G01X10799Y7174D01*
G01X11799Y7174D01*
G01X11799Y7724D01*
G37*
G36*
G01X11799Y6774D02*
G01X10799Y6774D01*
G01X10799Y6224D01*
G01X11799Y6224D01*
G01X11799Y6774D01*
G37*
G36*
G01X11799Y5824D02*
G01X10799Y5824D01*
G01X10799Y5274D01*
G01X11799Y5274D01*
G01X11799Y5824D01*
G37*
G36*
G01X3199Y15449D02*
G01X4199Y15449D01*
G01X4199Y16549D01*
G01X3199Y16549D01*
G01X3199Y15449D01*
G37*
G36*
G01X4599Y15449D02*
G01X5599Y15449D01*
G01X5599Y16549D01*
G01X4599Y16549D01*
G01X4599Y15449D01*
G37*
G36*
G01X1750Y20200D02*
G01X1750Y19200D01*
G01X2850Y19200D01*
G01X2850Y20200D01*
G01X1750Y20200D01*
G37*
G36*
G01X1750Y18800D02*
G01X1750Y17800D01*
G01X2850Y17800D01*
G01X2850Y18800D01*
G01X1750Y18800D01*
G37*
G36*
G01X13899Y3049D02*
G01X14899Y3049D01*
G01X14899Y4149D01*
G01X13899Y4149D01*
G01X13899Y3049D01*
G37*
G36*
G01X15299Y3049D02*
G01X16299Y3049D01*
G01X16299Y4149D01*
G01X15299Y4149D01*
G01X15299Y3049D01*
G37*
G36*
G01X6000Y20249D02*
G01X5000Y20249D01*
G01X5000Y19149D01*
G01X6000Y19149D01*
G01X6000Y20249D01*
G37*
G36*
G01X4600Y20249D02*
G01X3600Y20249D01*
G01X3600Y19149D01*
G01X4600Y19149D01*
G01X4600Y20249D01*
G37*
G36*
G01X19599Y1349D02*
G01X20599Y1349D01*
G01X20599Y2449D01*
G01X19599Y2449D01*
G01X19599Y1349D01*
G37*
G36*
G01X20999Y1349D02*
G01X21999Y1349D01*
G01X21999Y2449D01*
G01X20999Y2449D01*
G01X20999Y1349D01*
G37*
G36*
G01X16099Y28450D02*
G01X17099Y28450D01*
G01X17099Y29550D01*
G01X16099Y29550D01*
G01X16099Y28450D01*
G37*
G36*
G01X17499Y28450D02*
G01X18499Y28450D01*
G01X18499Y29550D01*
G01X17499Y29550D01*
G01X17499Y28450D01*
G37*
G36*
G01X14475Y28624D02*
G01X13875Y28624D01*
G01X13875Y27975D01*
G01X14475Y27975D01*
G01X14475Y28624D01*
G37*
G36*
G01X15323Y28624D02*
G01X14723Y28624D01*
G01X14723Y27975D01*
G01X15323Y27975D01*
G01X15323Y28624D01*
G37*
G36*
G01X10262Y34179D02*
G01X8848Y35593D01*
G01X8530Y35275D01*
G01X9944Y33861D01*
G01X10262Y34179D01*
G37*
G36*
G01X9802Y33719D02*
G01X8388Y35133D01*
G01X8070Y34815D01*
G01X9484Y33401D01*
G01X9802Y33719D01*
G37*
G36*
G01X9343Y33260D02*
G01X7929Y34674D01*
G01X7610Y34356D01*
G01X9025Y32941D01*
G01X9343Y33260D01*
G37*
G36*
G01X8883Y32800D02*
G01X7469Y34214D01*
G01X7151Y33896D01*
G01X8565Y32482D01*
G01X8883Y32800D01*
G37*
G36*
G01X8424Y32340D02*
G01X7009Y33755D01*
G01X6691Y33436D01*
G01X8105Y32022D01*
G01X8424Y32340D01*
G37*
G36*
G01X7299Y8999D02*
G01X8900Y8999D01*
G01X8900Y10999D01*
G01X7299Y10999D01*
G01X7299Y8999D01*
G37*
G36*
G01X10499Y8999D02*
G01X12100Y8999D01*
G01X12100Y10999D01*
G01X10499Y10999D01*
G01X10499Y8999D01*
G37*
G36*
G01X6145Y21141D02*
G01X6145Y22441D01*
G01X5664Y22441D01*
G01X5664Y21141D01*
G01X6145Y21141D01*
G37*
G36*
G01X4875Y21141D02*
G01X4875Y22441D01*
G01X4394Y22441D01*
G01X4394Y21141D01*
G01X4875Y21141D01*
G37*
G36*
G01X3605Y21141D02*
G01X3605Y22441D01*
G01X3124Y22441D01*
G01X3124Y21141D01*
G01X3605Y21141D01*
G37*
G36*
G01X2335Y21141D02*
G01X2335Y22441D01*
G01X1854Y22441D01*
G01X1854Y21141D01*
G01X2335Y21141D01*
G37*
G36*
G01X2335Y26958D02*
G01X2335Y28258D01*
G01X1854Y28258D01*
G01X1854Y26958D01*
G01X2335Y26958D01*
G37*
G36*
G01X3605Y26958D02*
G01X3605Y28258D01*
G01X3124Y28258D01*
G01X3124Y26958D01*
G01X3605Y26958D01*
G37*
G36*
G01X4875Y26958D02*
G01X4875Y28258D01*
G01X4394Y28258D01*
G01X4394Y26958D01*
G01X4875Y26958D01*
G37*
G36*
G01X6145Y26958D02*
G01X6145Y28258D01*
G01X5664Y28258D01*
G01X5664Y26958D01*
G01X6145Y26958D01*
G37*
G36*
G01X2249Y23450D02*
G01X5750Y23450D01*
G01X5750Y25949D01*
G01X2249Y25949D01*
G01X2249Y23450D01*
G37*
G36*
G01X19444Y32530D02*
G01X18352Y32530D01*
G01X18352Y30371D01*
G01X19444Y30371D01*
G01X19444Y32530D01*
G37*
G36*
G01X17133Y32530D02*
G01X16040Y32530D01*
G01X16040Y30371D01*
G01X17133Y30371D01*
G01X17133Y32530D01*
G37*
G36*
G01X14847Y32530D02*
G01X13754Y32530D01*
G01X13754Y30371D01*
G01X14847Y30371D01*
G01X14847Y32530D01*
G37*
G36*
G01X18339Y38728D02*
G01X14834Y38728D01*
G01X14834Y36569D01*
G01X18339Y36569D01*
G01X18339Y38728D01*
G37*
G36*
G01X23330Y1199D02*
G01X25330Y1199D01*
G01X25330Y3199D01*
G01X23330Y3199D01*
G01X23330Y1199D01*
G37*
G54D33*
G01X26870Y2199D03*
G54D34*
G01X6156Y31476D03*
G01X10823Y36143D03*
G54D35*
G01X14479Y39999D03*
G54D36*
G01X17019Y40000D03*
G36*
G01X27640Y38949D02*
G01X29339Y38949D01*
G01X29339Y37250D01*
G01X27640Y37250D01*
G01X27640Y38949D01*
G37*
G54D38*
G01X31029Y38100D03*
G01X33569Y38100D03*
G01X36109Y38100D03*
G54D35*
G01X21062Y10617D03*
G54D36*
G01X21062Y13157D03*
G01X21062Y15697D03*
G01X21062Y18237D03*
G01X21062Y20777D03*
G01X21062Y23317D03*
G01X21062Y25857D03*
G01X21062Y28397D03*
G54D17*
G01X15299Y28699D03*
G01X17649Y31249D03*
G01X13099Y28949D03*
G01X15999Y29500D03*
G01X32900Y41999D03*
G01X18800Y44999D03*
G01X22600Y38800D03*
G01X17549Y43500D03*
G01X15900Y43699D03*
G01X8600Y31540D03*
G01X13449Y37699D03*
G01X24299Y34599D03*
G01X24900Y41599D03*
G01X24900Y40699D03*
G01X23800Y39299D03*
G01X24839Y43099D03*
G01X22600Y2700D03*
G01X15049Y4900D03*
G01X13099Y31049D03*
G01X11700Y31499D03*
G01X10200Y30800D03*
G01X6000Y29500D03*
G01X16500Y17499D03*
G01X13500Y17799D03*
G01X24699Y28800D03*
G01X22900Y28699D03*
G01X3800Y13799D03*
G01X2400Y17599D03*
G01X2999Y27199D03*
G01X4599Y28100D03*
G01X7599Y21100D03*
G01X7599Y24499D03*
G01X14699Y17599D03*
G01X20099Y30900D03*
G01X24400Y23399D03*
G01X4552Y18110D03*
G01X8870Y13284D03*
G01X9886Y14300D03*
G01X6711Y11760D03*
G01X12599Y23400D03*
G01X12500Y21999D03*
G01X14699Y20100D03*
G01X12700Y26599D03*
G01X40200Y27100D03*
G01X26600Y11199D03*
G01X39999Y17899D03*
G01X39999Y19400D03*
G01X39999Y16799D03*
G01X12288Y17487D03*
G01X11410Y15199D03*
G01X43200Y21899D03*
G01X42599Y25700D03*
G01X28100Y35999D03*
G01X29300Y36000D03*
G01X22299Y36699D03*
G01X21200Y36599D03*
G01X23600Y36699D03*
G01X16999Y26299D03*
G01X18350Y24849D03*
G01X26299Y7999D03*
G01X18999Y3899D03*
G01X25100Y5499D03*
G01X27800Y4499D03*
G01X29600Y2700D03*
G01X34900Y7999D03*
G01X4249Y20361D03*
G01X19500Y43500D03*
G01X23800Y4099D03*
G01X28399Y11599D03*
G01X30500Y8199D03*
G54D39*
G01X9373Y38017D02*
G01X8737Y38653D01*
G01X4282Y32926D02*
G01X3646Y33562D01*
M00*
M02*
