G04 Layer: BottomSolderMaskLayer*
G04 EasyEDA v6.4.7, 2020-12-08T13:31:26--8:00*
G04 2666239171464f44b57efdd4127db657,11a6c599673c4091828b82ff80a72166,10*
G04 Gerber Generator version 0.2*
G04 Scale: 100 percent, Rotated: No, Reflected: No *
G04 Dimensions in millimeters *
G04 leading zeros omitted , absolute positions ,3 integer and 3 decimal *
%FSLAX33Y33*%
%MOMM*%
G90*
D02*

%ADD58C,1.503197*%
%ADD59C,0.483210*%
%ADD62C,2.203196*%
%ADD63C,1.703197*%
%ADD65R,1.778000X1.778000*%
%ADD66C,1.778000*%
%ADD72C,1.903197*%
%ADD82C,0.603199*%

%LPD*%
G54D59*
G01X24160Y42731D02*
G01X23640Y42731D01*
G01X24160Y42231D02*
G01X23640Y42231D01*
G01X24160Y41731D02*
G01X23640Y41731D01*
G01X24160Y41233D02*
G01X23640Y41233D01*
G01X24160Y40732D02*
G01X23640Y40732D01*
G01X24160Y40232D02*
G01X23640Y40232D01*
G01X23144Y39760D02*
G01X23144Y39240D01*
G01X22644Y39760D02*
G01X22644Y39240D01*
G01X22143Y39760D02*
G01X22143Y39240D01*
G01X21646Y39760D02*
G01X21646Y39240D01*
G01X21145Y39760D02*
G01X21145Y39240D01*
G01X20645Y39760D02*
G01X20645Y39240D01*
G01X20160Y40242D02*
G01X19640Y40242D01*
G01X20160Y40743D02*
G01X19640Y40743D01*
G01X20160Y41243D02*
G01X19640Y41243D01*
G01X20160Y41741D02*
G01X19640Y41741D01*
G01X20160Y42241D02*
G01X19640Y42241D01*
G01X20160Y42742D02*
G01X19640Y42742D01*
G01X20630Y43760D02*
G01X20630Y43240D01*
G01X21130Y43760D02*
G01X21130Y43240D01*
G01X21630Y43760D02*
G01X21630Y43240D01*
G01X22128Y43760D02*
G01X22128Y43240D01*
G01X22629Y43760D02*
G01X22629Y43240D01*
G01X23129Y43760D02*
G01X23129Y43240D01*
G54D58*
G01X9373Y38017D02*
G01X8737Y38653D01*
G01X4282Y32926D02*
G01X3646Y33562D01*
G54D82*
G01X23950Y7075D02*
G01X22850Y7075D01*
G01X23950Y6424D02*
G01X22850Y6424D01*
G01X23950Y5774D02*
G01X22850Y5774D01*
G01X23950Y5124D02*
G01X22850Y5124D01*
G01X17549Y7075D02*
G01X16449Y7075D01*
G01X17549Y6424D02*
G01X16449Y6424D01*
G01X17549Y5774D02*
G01X16449Y5774D01*
G01X17549Y5124D02*
G01X16449Y5124D01*
G36*
G01X35137Y7686D02*
G01X34286Y8537D01*
G01X35137Y9388D01*
G01X35987Y8537D01*
G01X35137Y7686D01*
G37*
G36*
G01X29762Y2312D02*
G01X28911Y3163D01*
G01X29762Y4013D01*
G01X30613Y3163D01*
G01X29762Y2312D01*
G37*
G36*
G01X33580Y9243D02*
G01X32729Y10094D01*
G01X33580Y10943D01*
G01X34430Y10094D01*
G01X33580Y9243D01*
G37*
G36*
G01X28205Y3869D02*
G01X27354Y4720D01*
G01X28205Y5570D01*
G01X29056Y4720D01*
G01X28205Y3869D01*
G37*
G36*
G01X31883Y8748D02*
G01X30750Y9881D01*
G01X31601Y10732D01*
G01X32734Y9599D01*
G01X31883Y8748D01*
G37*
G36*
G01X29762Y6627D02*
G01X28629Y7760D01*
G01X29477Y8611D01*
G01X30613Y7475D01*
G01X29762Y6627D01*
G37*
G36*
G01X28700Y5565D02*
G01X27567Y6698D01*
G01X28418Y7549D01*
G01X29551Y6416D01*
G01X28700Y5565D01*
G37*
G36*
G01X20458Y40046D02*
G01X20458Y42929D01*
G01X23341Y42929D01*
G01X23341Y40046D01*
G01X20458Y40046D01*
G37*
G36*
G01X17974Y43373D02*
G01X17974Y44227D01*
G01X18776Y44227D01*
G01X18776Y43373D01*
G01X17974Y43373D01*
G37*
G36*
G01X18822Y43373D02*
G01X18822Y44227D01*
G01X19625Y44227D01*
G01X19625Y43373D01*
G01X18822Y43373D01*
G37*
G36*
G01X25373Y41674D02*
G01X25373Y42525D01*
G01X26178Y42525D01*
G01X26178Y41674D01*
G01X25373Y41674D01*
G37*
G36*
G01X26221Y41674D02*
G01X26221Y42525D01*
G01X27026Y42525D01*
G01X27026Y41674D01*
G01X26221Y41674D01*
G37*
G36*
G01X15848Y41748D02*
G01X15848Y43051D01*
G01X17052Y43051D01*
G01X17052Y41748D01*
G01X15848Y41748D01*
G37*
G36*
G01X17247Y41748D02*
G01X17247Y43051D01*
G01X18451Y43051D01*
G01X18451Y41748D01*
G01X17247Y41748D01*
G37*
G36*
G01X25172Y38621D02*
G01X25172Y39426D01*
G01X26026Y39426D01*
G01X26026Y38621D01*
G01X25172Y38621D01*
G37*
G36*
G01X25172Y37773D02*
G01X25172Y38578D01*
G01X26026Y38578D01*
G01X26026Y37773D01*
G01X25172Y37773D01*
G37*
G36*
G01X23773Y38621D02*
G01X23773Y39426D01*
G01X24626Y39426D01*
G01X24626Y38621D01*
G01X23773Y38621D01*
G37*
G36*
G01X23773Y37773D02*
G01X23773Y38578D01*
G01X24626Y38578D01*
G01X24626Y37773D01*
G01X23773Y37773D01*
G37*
G36*
G01X25373Y40272D02*
G01X25373Y41125D01*
G01X26178Y41125D01*
G01X26178Y40272D01*
G01X25373Y40272D01*
G37*
G36*
G01X26221Y40272D02*
G01X26221Y41125D01*
G01X27026Y41125D01*
G01X27026Y40272D01*
G01X26221Y40272D01*
G37*
G36*
G01X10897Y28298D02*
G01X10897Y30501D01*
G01X12701Y30501D01*
G01X12701Y28298D01*
G01X10897Y28298D01*
G37*
G36*
G01X7697Y28298D02*
G01X7697Y30501D01*
G01X9500Y30501D01*
G01X9500Y28298D01*
G01X7697Y28298D01*
G37*
G36*
G01X15398Y14298D02*
G01X15398Y16500D01*
G01X17600Y16500D01*
G01X17600Y14298D01*
G01X15398Y14298D01*
G37*
G36*
G01X13112Y14298D02*
G01X13112Y16500D01*
G01X15314Y16500D01*
G01X15314Y14298D01*
G01X13112Y14298D01*
G37*
G36*
G01X23229Y1098D02*
G01X23229Y3302D01*
G01X25431Y3302D01*
G01X25431Y1098D01*
G01X23229Y1098D01*
G37*
G54D62*
G01X26870Y2199D03*
G36*
G01X13498Y5172D02*
G01X13498Y5926D01*
G01X14702Y5926D01*
G01X14702Y5172D01*
G01X13498Y5172D01*
G37*
G36*
G01X13498Y6122D02*
G01X13498Y6876D01*
G01X14702Y6876D01*
G01X14702Y6122D01*
G01X13498Y6122D01*
G37*
G36*
G01X13498Y7072D02*
G01X13498Y7826D01*
G01X14702Y7826D01*
G01X14702Y7072D01*
G01X13498Y7072D01*
G37*
G36*
G01X10697Y7072D02*
G01X10697Y7826D01*
G01X11901Y7826D01*
G01X11901Y7072D01*
G01X10697Y7072D01*
G37*
G36*
G01X10697Y6122D02*
G01X10697Y6876D01*
G01X11901Y6876D01*
G01X11901Y6122D01*
G01X10697Y6122D01*
G37*
G36*
G01X10697Y5172D02*
G01X10697Y5926D01*
G01X11901Y5926D01*
G01X11901Y5172D01*
G01X10697Y5172D01*
G37*
G36*
G01X3097Y15347D02*
G01X3097Y16650D01*
G01X4301Y16650D01*
G01X4301Y15347D01*
G01X3097Y15347D01*
G37*
G36*
G01X4497Y15347D02*
G01X4497Y16650D01*
G01X5701Y16650D01*
G01X5701Y15347D01*
G01X4497Y15347D01*
G37*
G36*
G01X1647Y19099D02*
G01X1647Y20300D01*
G01X2952Y20300D01*
G01X2952Y19099D01*
G01X1647Y19099D01*
G37*
G36*
G01X1647Y17699D02*
G01X1647Y18900D01*
G01X2952Y18900D01*
G01X2952Y17699D01*
G01X1647Y17699D01*
G37*
G36*
G01X13798Y2947D02*
G01X13798Y4252D01*
G01X15002Y4252D01*
G01X15002Y2947D01*
G01X13798Y2947D01*
G37*
G36*
G01X15198Y2947D02*
G01X15198Y4252D01*
G01X16402Y4252D01*
G01X16402Y2947D01*
G01X15198Y2947D01*
G37*
G36*
G01X4898Y19048D02*
G01X4898Y20351D01*
G01X6102Y20351D01*
G01X6102Y19048D01*
G01X4898Y19048D01*
G37*
G36*
G01X3498Y19048D02*
G01X3498Y20351D01*
G01X4702Y20351D01*
G01X4702Y19048D01*
G01X3498Y19048D01*
G37*
G36*
G01X19498Y1247D02*
G01X19498Y2550D01*
G01X20702Y2550D01*
G01X20702Y1247D01*
G01X19498Y1247D01*
G37*
G36*
G01X20897Y1247D02*
G01X20897Y2550D01*
G01X22101Y2550D01*
G01X22101Y1247D01*
G01X20897Y1247D01*
G37*
G36*
G01X15998Y28347D02*
G01X15998Y29652D01*
G01X17202Y29652D01*
G01X17202Y28347D01*
G01X15998Y28347D01*
G37*
G36*
G01X17397Y28347D02*
G01X17397Y29652D01*
G01X18601Y29652D01*
G01X18601Y28347D01*
G01X17397Y28347D01*
G37*
G36*
G01X13773Y27874D02*
G01X13773Y28725D01*
G01X14578Y28725D01*
G01X14578Y27874D01*
G01X13773Y27874D01*
G37*
G36*
G01X14621Y27874D02*
G01X14621Y28725D01*
G01X15426Y28725D01*
G01X15426Y27874D01*
G01X14621Y27874D01*
G37*
G36*
G01X9945Y33716D02*
G01X8385Y35276D01*
G01X8848Y35736D01*
G01X10405Y34179D01*
G01X9945Y33716D01*
G37*
G36*
G01X9485Y33256D02*
G01X7926Y34816D01*
G01X8388Y35278D01*
G01X9947Y33719D01*
G01X9485Y33256D01*
G37*
G36*
G01X9025Y32797D02*
G01X7466Y34356D01*
G01X7928Y34819D01*
G01X9488Y33259D01*
G01X9025Y32797D01*
G37*
G36*
G01X8566Y32337D02*
G01X7006Y33897D01*
G01X7468Y34359D01*
G01X9028Y32799D01*
G01X8566Y32337D01*
G37*
G36*
G01X8106Y31877D02*
G01X6546Y33437D01*
G01X7009Y33899D01*
G01X8568Y32340D01*
G01X8106Y31877D01*
G37*
G54D63*
G01X6156Y31476D03*
G01X10823Y36143D03*
G36*
G01X7197Y8898D02*
G01X7197Y11100D01*
G01X9000Y11100D01*
G01X9000Y8898D01*
G01X7197Y8898D01*
G37*
G36*
G01X10397Y8898D02*
G01X10397Y11100D01*
G01X12200Y11100D01*
G01X12200Y8898D01*
G01X10397Y8898D01*
G37*
G36*
G01X5563Y21039D02*
G01X5563Y22543D01*
G01X6247Y22543D01*
G01X6247Y21039D01*
G01X5563Y21039D01*
G37*
G36*
G01X4293Y21039D02*
G01X4293Y22543D01*
G01X4977Y22543D01*
G01X4977Y21039D01*
G01X4293Y21039D01*
G37*
G36*
G01X3023Y21039D02*
G01X3023Y22543D01*
G01X3707Y22543D01*
G01X3707Y21039D01*
G01X3023Y21039D01*
G37*
G36*
G01X1753Y21039D02*
G01X1753Y22543D01*
G01X2437Y22543D01*
G01X2437Y21039D01*
G01X1753Y21039D01*
G37*
G36*
G01X1753Y26856D02*
G01X1753Y28359D01*
G01X2437Y28359D01*
G01X2437Y26856D01*
G01X1753Y26856D01*
G37*
G36*
G01X3023Y26856D02*
G01X3023Y28359D01*
G01X3707Y28359D01*
G01X3707Y26856D01*
G01X3023Y26856D01*
G37*
G36*
G01X4293Y26856D02*
G01X4293Y28359D01*
G01X4977Y28359D01*
G01X4977Y26856D01*
G01X4293Y26856D01*
G37*
G36*
G01X5563Y26856D02*
G01X5563Y28359D01*
G01X6247Y28359D01*
G01X6247Y26856D01*
G01X5563Y26856D01*
G37*
G36*
G01X2147Y23348D02*
G01X2147Y26051D01*
G01X5850Y26051D01*
G01X5850Y23348D01*
G01X2147Y23348D01*
G37*
G36*
G01X13590Y39111D02*
G01X13590Y40889D01*
G01X15368Y40889D01*
G01X15368Y39111D01*
G01X13590Y39111D01*
G37*
G54D66*
G01X17019Y40000D03*
G36*
G01X27537Y37148D02*
G01X27537Y39050D01*
G01X29442Y39050D01*
G01X29442Y37148D01*
G01X27537Y37148D01*
G37*
G54D72*
G01X31029Y38100D03*
G01X33569Y38100D03*
G01X36109Y38100D03*
G54D65*
G01X21062Y10617D03*
G54D66*
G01X21062Y13157D03*
G01X21062Y15697D03*
G01X21062Y18237D03*
G01X21062Y20777D03*
G01X21062Y23317D03*
G01X21062Y25857D03*
G01X21062Y28397D03*
G36*
G01X18251Y30269D02*
G01X18251Y32632D01*
G01X19546Y32632D01*
G01X19546Y30269D01*
G01X18251Y30269D01*
G37*
G36*
G01X15939Y30269D02*
G01X15939Y32632D01*
G01X17235Y32632D01*
G01X17235Y30269D01*
G01X15939Y30269D01*
G37*
G36*
G01X13653Y30269D02*
G01X13653Y32632D01*
G01X14949Y32632D01*
G01X14949Y30269D01*
G01X13653Y30269D01*
G37*
G36*
G01X14733Y36467D02*
G01X14733Y38829D01*
G01X18441Y38829D01*
G01X18441Y36467D01*
G01X14733Y36467D01*
G37*
M00*
M02*
