G04 Layer: TopPasteMaskLayer*
G04 EasyEDA v6.4.7, 2020-12-08T13:31:26--8:00*
G04 2666239171464f44b57efdd4127db657,11a6c599673c4091828b82ff80a72166,10*
G04 Gerber Generator version 0.2*
G04 Scale: 100 percent, Rotated: No, Reflected: No *
G04 Dimensions in millimeters *
G04 leading zeros omitted , absolute positions ,3 integer and 3 decimal *
%FSLAX33Y33*%
%MOMM*%
G90*
D02*

%ADD15C,0.280010*%
%ADD16C,0.599999*%
%ADD18R,1.092200X0.990600*%
%ADD19R,1.099998X0.999998*%
%ADD20R,2.199996X3.499993*%
%ADD21R,2.199996X1.099998*%
%ADD22R,0.999998X1.099998*%
%ADD24R,1.199998X1.999996*%
%ADD25R,1.999996X1.600200*%
%ADD30R,1.000760X1.501140*%

%LPD*%
G54D15*
G01X4324Y16929D02*
G01X4844Y16929D01*
G01X4324Y16429D02*
G01X4844Y16429D01*
G01X4324Y15929D02*
G01X4844Y15929D01*
G01X4324Y15431D02*
G01X4844Y15431D01*
G01X4324Y14930D02*
G01X4844Y14930D01*
G01X4324Y14430D02*
G01X4844Y14430D01*
G01X5340Y13957D02*
G01X5340Y13437D01*
G01X5840Y13957D02*
G01X5840Y13437D01*
G01X6341Y13957D02*
G01X6341Y13437D01*
G01X6838Y13957D02*
G01X6838Y13437D01*
G01X7339Y13957D02*
G01X7339Y13437D01*
G01X7839Y13957D02*
G01X7839Y13437D01*
G01X8324Y14440D02*
G01X8844Y14440D01*
G01X8324Y14941D02*
G01X8844Y14941D01*
G01X8324Y15441D02*
G01X8844Y15441D01*
G01X8324Y15939D02*
G01X8844Y15939D01*
G01X8324Y16439D02*
G01X8844Y16439D01*
G01X8324Y16940D02*
G01X8844Y16940D01*
G01X7854Y17957D02*
G01X7854Y17437D01*
G01X7354Y17957D02*
G01X7354Y17437D01*
G01X6854Y17957D02*
G01X6854Y17437D01*
G01X6356Y17957D02*
G01X6356Y17437D01*
G01X5855Y17957D02*
G01X5855Y17437D01*
G01X5355Y17957D02*
G01X5355Y17437D01*
G54D16*
G01X21029Y38080D02*
G01X21029Y37160D01*
G01X22299Y38080D02*
G01X22299Y37160D01*
G01X23569Y38080D02*
G01X23569Y37160D01*
G01X24839Y38080D02*
G01X24839Y37160D01*
G01X21029Y43559D02*
G01X21029Y42639D01*
G01X22299Y43559D02*
G01X22299Y42639D01*
G01X23569Y43559D02*
G01X23569Y42639D01*
G01X24839Y43559D02*
G01X24839Y42639D01*
G54D18*
G01X34451Y41500D03*
G01X32749Y41500D03*
G54D19*
G01X5441Y10233D03*
G01X5441Y11633D03*
G54D20*
G01X13001Y34199D03*
G54D21*
G01X19198Y36500D03*
G01X19198Y34199D03*
G01X19198Y31899D03*
G54D22*
G01X17900Y5199D03*
G01X16500Y5199D03*
G36*
G01X4099Y24849D02*
G01X5099Y24849D01*
G01X5099Y23749D01*
G01X4099Y23749D01*
G01X4099Y24849D01*
G37*
G36*
G01X5499Y24849D02*
G01X6499Y24849D01*
G01X6499Y23749D01*
G01X5499Y23749D01*
G01X5499Y24849D01*
G37*
G54D18*
G01X13950Y5199D03*
G01X12249Y5199D03*
G01X5950Y22199D03*
G01X4249Y22199D03*
G36*
G01X5244Y17025D02*
G01X7925Y17025D01*
G01X7925Y14345D01*
G01X5244Y14345D01*
G01X5244Y17025D01*
G37*
G36*
G01X12180Y14723D02*
G01X13180Y14723D01*
G01X13180Y13623D01*
G01X12180Y13623D01*
G01X12180Y14723D01*
G37*
G36*
G01X13580Y14723D02*
G01X14580Y14723D01*
G01X14580Y13623D01*
G01X13580Y13623D01*
G01X13580Y14723D01*
G37*
G36*
G01X12177Y16882D02*
G01X13177Y16882D01*
G01X13177Y15782D01*
G01X12177Y15782D01*
G01X12177Y16882D01*
G37*
G36*
G01X13577Y16882D02*
G01X14577Y16882D01*
G01X14577Y15782D01*
G01X13577Y15782D01*
G01X13577Y16882D01*
G37*
G36*
G01X12180Y12564D02*
G01X13180Y12564D01*
G01X13180Y11464D01*
G01X12180Y11464D01*
G01X12180Y12564D01*
G37*
G36*
G01X13580Y12564D02*
G01X14580Y12564D01*
G01X14580Y11464D01*
G01X13580Y11464D01*
G01X13580Y12564D01*
G37*
G54D22*
G01X14712Y19380D03*
G01X13313Y19380D03*
G01X14712Y21285D03*
G01X13313Y21285D03*
G01X14715Y23190D03*
G01X13316Y23190D03*
G36*
G01X12815Y25645D02*
G01X13815Y25645D01*
G01X13815Y24545D01*
G01X12815Y24545D01*
G01X12815Y25645D01*
G37*
G36*
G01X14215Y25645D02*
G01X15215Y25645D01*
G01X15215Y24545D01*
G01X14215Y24545D01*
G01X14215Y25645D01*
G37*
G54D24*
G01X32749Y5400D03*
G01X28250Y5400D03*
G01X21150Y5400D03*
G01X25649Y5400D03*
G54D25*
G01X9251Y11785D03*
G01X9251Y8585D03*
G36*
G01X11626Y9458D02*
G01X13226Y9458D01*
G01X13226Y7458D01*
G01X11626Y7458D01*
G01X11626Y9458D01*
G37*
G36*
G01X14826Y9458D02*
G01X16426Y9458D01*
G01X16426Y7458D01*
G01X14826Y7458D01*
G01X14826Y9458D01*
G37*
G36*
G01X6927Y28762D02*
G01X8527Y28762D01*
G01X8527Y26762D01*
G01X6927Y26762D01*
G01X6927Y28762D01*
G37*
G36*
G01X10127Y28762D02*
G01X11727Y28762D01*
G01X11727Y26762D01*
G01X10127Y26762D01*
G01X10127Y28762D01*
G37*
G36*
G01X13699Y29299D02*
G01X15300Y29299D01*
G01X15300Y27299D01*
G01X13699Y27299D01*
G01X13699Y29299D01*
G37*
G36*
G01X16899Y29299D02*
G01X18500Y29299D01*
G01X18500Y27299D01*
G01X16899Y27299D01*
G01X16899Y29299D01*
G37*
G36*
G01X26399Y42799D02*
G01X28000Y42799D01*
G01X28000Y40799D01*
G01X26399Y40799D01*
G01X26399Y42799D01*
G37*
G36*
G01X29599Y42799D02*
G01X31200Y42799D01*
G01X31200Y40799D01*
G01X29599Y40799D01*
G01X29599Y42799D01*
G37*
G36*
G01X9575Y24600D02*
G01X10275Y24600D01*
G01X10275Y24250D01*
G01X9575Y24250D01*
G01X9575Y24600D01*
G37*
G36*
G01X9575Y23950D02*
G01X10275Y23950D01*
G01X10275Y23599D01*
G01X9575Y23599D01*
G01X9575Y23950D01*
G37*
G36*
G01X9575Y23290D02*
G01X10275Y23290D01*
G01X10275Y22939D01*
G01X9575Y22939D01*
G01X9575Y23290D01*
G37*
G36*
G01X9575Y22639D02*
G01X10275Y22639D01*
G01X10275Y22289D01*
G01X9575Y22289D01*
G01X9575Y22639D01*
G37*
G36*
G01X7974Y24600D02*
G01X8674Y24600D01*
G01X8674Y24250D01*
G01X7974Y24250D01*
G01X7974Y24600D01*
G37*
G36*
G01X7974Y23950D02*
G01X8674Y23950D01*
G01X8674Y23599D01*
G01X7974Y23599D01*
G01X7974Y23950D01*
G37*
G36*
G01X7974Y23290D02*
G01X8674Y23290D01*
G01X8674Y22939D01*
G01X7974Y22939D01*
G01X7974Y23290D01*
G37*
G36*
G01X7974Y22639D02*
G01X8674Y22639D01*
G01X8674Y22289D01*
G01X7974Y22289D01*
G01X7974Y22639D01*
G37*
G36*
G01X8062Y19578D02*
G01X8662Y19578D01*
G01X8662Y18929D01*
G01X8062Y18929D01*
G01X8062Y19578D01*
G37*
G36*
G01X7214Y19578D02*
G01X7814Y19578D01*
G01X7814Y18929D01*
G01X7214Y18929D01*
G01X7214Y19578D01*
G37*
G36*
G01X22303Y24921D02*
G01X23804Y24921D01*
G01X23804Y23920D01*
G01X22303Y23920D01*
G01X22303Y24921D01*
G37*
G36*
G01X22303Y23651D02*
G01X23804Y23651D01*
G01X23804Y22650D01*
G01X22303Y22650D01*
G01X22303Y23651D01*
G37*
G36*
G01X22303Y22381D02*
G01X23804Y22381D01*
G01X23804Y21380D01*
G01X22303Y21380D01*
G01X22303Y22381D01*
G37*
G36*
G01X22303Y21111D02*
G01X23804Y21111D01*
G01X23804Y20110D01*
G01X22303Y20110D01*
G01X22303Y21111D01*
G37*
G36*
G01X22303Y19841D02*
G01X23804Y19841D01*
G01X23804Y18840D01*
G01X22303Y18840D01*
G01X22303Y19841D01*
G37*
G36*
G01X22303Y18571D02*
G01X23804Y18571D01*
G01X23804Y17570D01*
G01X22303Y17570D01*
G01X22303Y18571D01*
G37*
G36*
G01X22303Y17301D02*
G01X23804Y17301D01*
G01X23804Y16300D01*
G01X22303Y16300D01*
G01X22303Y17301D01*
G37*
G36*
G01X22303Y16031D02*
G01X23804Y16031D01*
G01X23804Y15030D01*
G01X22303Y15030D01*
G01X22303Y16031D01*
G37*
G54D30*
G01X38040Y9968D03*
G36*
G01X40794Y12221D02*
G01X42296Y12221D01*
G01X42296Y11220D01*
G01X40794Y11220D01*
G01X40794Y12221D01*
G37*
G36*
G01X40794Y13491D02*
G01X42296Y13491D01*
G01X42296Y12490D01*
G01X40794Y12490D01*
G01X40794Y13491D01*
G37*
G36*
G01X40794Y14761D02*
G01X42296Y14761D01*
G01X42296Y13760D01*
G01X40794Y13760D01*
G01X40794Y14761D01*
G37*
G36*
G01X40794Y16031D02*
G01X42296Y16031D01*
G01X42296Y15030D01*
G01X40794Y15030D01*
G01X40794Y16031D01*
G37*
G36*
G01X40794Y17301D02*
G01X42296Y17301D01*
G01X42296Y16300D01*
G01X40794Y16300D01*
G01X40794Y17301D01*
G37*
G36*
G01X40794Y18571D02*
G01X42296Y18571D01*
G01X42296Y17570D01*
G01X40794Y17570D01*
G01X40794Y18571D01*
G37*
G36*
G01X40794Y19841D02*
G01X42296Y19841D01*
G01X42296Y18840D01*
G01X40794Y18840D01*
G01X40794Y19841D01*
G37*
G01X29150Y9968D03*
G36*
G01X22303Y14761D02*
G01X23804Y14761D01*
G01X23804Y13760D01*
G01X22303Y13760D01*
G01X22303Y14761D01*
G37*
G36*
G01X22303Y13491D02*
G01X23804Y13491D01*
G01X23804Y12490D01*
G01X22303Y12490D01*
G01X22303Y13491D01*
G37*
G36*
G01X22303Y12221D02*
G01X23804Y12221D01*
G01X23804Y11220D01*
G01X22303Y11220D01*
G01X22303Y12221D01*
G37*
G01X26610Y9968D03*
G01X27880Y9968D03*
G36*
G01X22303Y26191D02*
G01X23804Y26191D01*
G01X23804Y25190D01*
G01X22303Y25190D01*
G01X22303Y26191D01*
G37*
G36*
G01X22303Y27461D02*
G01X23804Y27461D01*
G01X23804Y26460D01*
G01X22303Y26460D01*
G01X22303Y27461D01*
G37*
G36*
G01X22303Y28731D02*
G01X23804Y28731D01*
G01X23804Y27730D01*
G01X22303Y27730D01*
G01X22303Y28731D01*
G37*
G01X30420Y9968D03*
G01X31690Y9968D03*
G01X32960Y9968D03*
G01X36770Y9968D03*
G01X35500Y9968D03*
G01X34230Y9968D03*
G36*
G01X40794Y21111D02*
G01X42296Y21111D01*
G01X42296Y20110D01*
G01X40794Y20110D01*
G01X40794Y21111D01*
G37*
G36*
G01X40794Y22381D02*
G01X42296Y22381D01*
G01X42296Y21380D01*
G01X40794Y21380D01*
G01X40794Y22381D01*
G37*
G36*
G01X40794Y23651D02*
G01X42296Y23651D01*
G01X42296Y22650D01*
G01X40794Y22650D01*
G01X40794Y23651D01*
G37*
G36*
G01X40794Y24921D02*
G01X42296Y24921D01*
G01X42296Y23920D01*
G01X40794Y23920D01*
G01X40794Y24921D01*
G37*
G36*
G01X40794Y26191D02*
G01X42296Y26191D01*
G01X42296Y25190D01*
G01X40794Y25190D01*
G01X40794Y26191D01*
G37*
G36*
G01X40794Y27461D02*
G01X42296Y27461D01*
G01X42296Y26460D01*
G01X40794Y26460D01*
G01X40794Y27461D01*
G37*
G36*
G01X40794Y28731D02*
G01X42296Y28731D01*
G01X42296Y27730D01*
G01X40794Y27730D01*
G01X40794Y28731D01*
G37*
G36*
G01X29605Y23509D02*
G01X35604Y23509D01*
G01X35604Y17509D01*
G01X29605Y17509D01*
G01X29605Y23509D01*
G37*
G54D18*
G01X4150Y29399D03*
G01X2449Y29399D03*
G01X4050Y26899D03*
G01X2349Y26899D03*
M00*
M02*
