G04 Layer: BottomPasteMaskLayer*
G04 EasyEDA v6.4.7, 2020-12-08T13:31:26--8:00*
G04 2666239171464f44b57efdd4127db657,11a6c599673c4091828b82ff80a72166,10*
G04 Gerber Generator version 0.2*
G04 Scale: 100 percent, Rotated: No, Reflected: No *
G04 Dimensions in millimeters *
G04 leading zeros omitted , absolute positions ,3 integer and 3 decimal *
%FSLAX33Y33*%
%MOMM*%
G90*
D02*

%ADD15C,0.280010*%
%ADD40C,0.399999*%

%LPD*%
G54D15*
G01X24160Y42731D02*
G01X23640Y42731D01*
G01X24160Y42231D02*
G01X23640Y42231D01*
G01X24160Y41731D02*
G01X23640Y41731D01*
G01X24160Y41233D02*
G01X23640Y41233D01*
G01X24160Y40732D02*
G01X23640Y40732D01*
G01X24160Y40232D02*
G01X23640Y40232D01*
G01X23144Y39760D02*
G01X23144Y39240D01*
G01X22644Y39760D02*
G01X22644Y39240D01*
G01X22143Y39760D02*
G01X22143Y39240D01*
G01X21646Y39760D02*
G01X21646Y39240D01*
G01X21145Y39760D02*
G01X21145Y39240D01*
G01X20645Y39760D02*
G01X20645Y39240D01*
G01X20160Y40242D02*
G01X19640Y40242D01*
G01X20160Y40743D02*
G01X19640Y40743D01*
G01X20160Y41243D02*
G01X19640Y41243D01*
G01X20160Y41741D02*
G01X19640Y41741D01*
G01X20160Y42241D02*
G01X19640Y42241D01*
G01X20160Y42742D02*
G01X19640Y42742D01*
G01X20630Y43760D02*
G01X20630Y43240D01*
G01X21130Y43760D02*
G01X21130Y43240D01*
G01X21630Y43760D02*
G01X21630Y43240D01*
G01X22128Y43760D02*
G01X22128Y43240D01*
G01X22629Y43760D02*
G01X22629Y43240D01*
G01X23129Y43760D02*
G01X23129Y43240D01*
G54D40*
G01X23950Y7075D02*
G01X22850Y7075D01*
G01X23950Y6424D02*
G01X22850Y6424D01*
G01X23950Y5774D02*
G01X22850Y5774D01*
G01X23950Y5124D02*
G01X22850Y5124D01*
G01X17549Y7075D02*
G01X16449Y7075D01*
G01X17549Y6424D02*
G01X16449Y6424D01*
G01X17549Y5774D02*
G01X16449Y5774D01*
G01X17549Y5124D02*
G01X16449Y5124D01*
G36*
G01X35136Y9244D02*
G01X34428Y8537D01*
G01X35136Y7830D01*
G01X35843Y8537D01*
G01X35136Y9244D01*
G37*
G36*
G01X29762Y3871D02*
G01X29054Y3163D01*
G01X29762Y2456D01*
G01X30469Y3163D01*
G01X29762Y3871D01*
G37*
G36*
G01X33580Y10800D02*
G01X32873Y10093D01*
G01X33580Y9386D01*
G01X34287Y10093D01*
G01X33580Y10800D01*
G37*
G36*
G01X28206Y5426D02*
G01X27499Y4719D01*
G01X28206Y4012D01*
G01X28913Y4719D01*
G01X28206Y5426D01*
G37*
G36*
G01X31600Y10588D02*
G01X30893Y9881D01*
G01X31883Y8891D01*
G01X32590Y9598D01*
G01X31600Y10588D01*
G37*
G36*
G01X29479Y8467D02*
G01X28772Y7760D01*
G01X29762Y6770D01*
G01X30469Y7477D01*
G01X29479Y8467D01*
G37*
G36*
G01X28418Y7406D02*
G01X27711Y6699D01*
G01X28701Y5709D01*
G01X29408Y6416D01*
G01X28418Y7406D01*
G37*
G36*
G01X23240Y42827D02*
G01X20559Y42827D01*
G01X20559Y40147D01*
G01X23240Y40147D01*
G01X23240Y42827D01*
G37*
G36*
G01X18675Y44124D02*
G01X18075Y44124D01*
G01X18075Y43475D01*
G01X18675Y43475D01*
G01X18675Y44124D01*
G37*
G36*
G01X19524Y44124D02*
G01X18924Y44124D01*
G01X18924Y43475D01*
G01X19524Y43475D01*
G01X19524Y44124D01*
G37*
G36*
G01X26075Y42424D02*
G01X25475Y42424D01*
G01X25475Y41775D01*
G01X26075Y41775D01*
G01X26075Y42424D01*
G37*
G36*
G01X26924Y42424D02*
G01X26324Y42424D01*
G01X26324Y41775D01*
G01X26924Y41775D01*
G01X26924Y42424D01*
G37*
G36*
G01X15949Y41850D02*
G01X16949Y41850D01*
G01X16949Y42950D01*
G01X15949Y42950D01*
G01X15949Y41850D01*
G37*
G36*
G01X17349Y41850D02*
G01X18349Y41850D01*
G01X18349Y42950D01*
G01X17349Y42950D01*
G01X17349Y41850D01*
G37*
G36*
G01X25924Y38724D02*
G01X25924Y39324D01*
G01X25275Y39324D01*
G01X25275Y38724D01*
G01X25924Y38724D01*
G37*
G36*
G01X25924Y37875D02*
G01X25924Y38475D01*
G01X25275Y38475D01*
G01X25275Y37875D01*
G01X25924Y37875D01*
G37*
G36*
G01X24524Y38724D02*
G01X24524Y39324D01*
G01X23875Y39324D01*
G01X23875Y38724D01*
G01X24524Y38724D01*
G37*
G36*
G01X24524Y37875D02*
G01X24524Y38475D01*
G01X23875Y38475D01*
G01X23875Y37875D01*
G01X24524Y37875D01*
G37*
G36*
G01X26075Y41024D02*
G01X25475Y41024D01*
G01X25475Y40375D01*
G01X26075Y40375D01*
G01X26075Y41024D01*
G37*
G36*
G01X26924Y41024D02*
G01X26324Y41024D01*
G01X26324Y40375D01*
G01X26924Y40375D01*
G01X26924Y41024D01*
G37*
G36*
G01X12600Y30399D02*
G01X10999Y30399D01*
G01X10999Y28399D01*
G01X12600Y28399D01*
G01X12600Y30399D01*
G37*
G36*
G01X9400Y30399D02*
G01X7799Y30399D01*
G01X7799Y28399D01*
G01X9400Y28399D01*
G01X9400Y30399D01*
G37*
G36*
G01X17500Y16399D02*
G01X15500Y16399D01*
G01X15500Y14399D01*
G01X17500Y14399D01*
G01X17500Y16399D01*
G37*
G36*
G01X15214Y16399D02*
G01X13214Y16399D01*
G01X13214Y14399D01*
G01X15214Y14399D01*
G01X15214Y16399D01*
G37*
G36*
G01X14600Y5824D02*
G01X13600Y5824D01*
G01X13600Y5274D01*
G01X14600Y5274D01*
G01X14600Y5824D01*
G37*
G36*
G01X14600Y6774D02*
G01X13600Y6774D01*
G01X13600Y6224D01*
G01X14600Y6224D01*
G01X14600Y6774D01*
G37*
G36*
G01X14600Y7724D02*
G01X13600Y7724D01*
G01X13600Y7174D01*
G01X14600Y7174D01*
G01X14600Y7724D01*
G37*
G36*
G01X11799Y7724D02*
G01X10799Y7724D01*
G01X10799Y7174D01*
G01X11799Y7174D01*
G01X11799Y7724D01*
G37*
G36*
G01X11799Y6774D02*
G01X10799Y6774D01*
G01X10799Y6224D01*
G01X11799Y6224D01*
G01X11799Y6774D01*
G37*
G36*
G01X11799Y5824D02*
G01X10799Y5824D01*
G01X10799Y5274D01*
G01X11799Y5274D01*
G01X11799Y5824D01*
G37*
G36*
G01X3199Y15449D02*
G01X4199Y15449D01*
G01X4199Y16549D01*
G01X3199Y16549D01*
G01X3199Y15449D01*
G37*
G36*
G01X4599Y15449D02*
G01X5599Y15449D01*
G01X5599Y16549D01*
G01X4599Y16549D01*
G01X4599Y15449D01*
G37*
G36*
G01X1750Y20200D02*
G01X1750Y19200D01*
G01X2850Y19200D01*
G01X2850Y20200D01*
G01X1750Y20200D01*
G37*
G36*
G01X1750Y18800D02*
G01X1750Y17800D01*
G01X2850Y17800D01*
G01X2850Y18800D01*
G01X1750Y18800D01*
G37*
G36*
G01X13899Y3049D02*
G01X14899Y3049D01*
G01X14899Y4149D01*
G01X13899Y4149D01*
G01X13899Y3049D01*
G37*
G36*
G01X15299Y3049D02*
G01X16299Y3049D01*
G01X16299Y4149D01*
G01X15299Y4149D01*
G01X15299Y3049D01*
G37*
G36*
G01X6000Y20249D02*
G01X5000Y20249D01*
G01X5000Y19149D01*
G01X6000Y19149D01*
G01X6000Y20249D01*
G37*
G36*
G01X4600Y20249D02*
G01X3600Y20249D01*
G01X3600Y19149D01*
G01X4600Y19149D01*
G01X4600Y20249D01*
G37*
G36*
G01X19599Y1349D02*
G01X20599Y1349D01*
G01X20599Y2449D01*
G01X19599Y2449D01*
G01X19599Y1349D01*
G37*
G36*
G01X20999Y1349D02*
G01X21999Y1349D01*
G01X21999Y2449D01*
G01X20999Y2449D01*
G01X20999Y1349D01*
G37*
G36*
G01X16099Y28450D02*
G01X17099Y28450D01*
G01X17099Y29550D01*
G01X16099Y29550D01*
G01X16099Y28450D01*
G37*
G36*
G01X17499Y28450D02*
G01X18499Y28450D01*
G01X18499Y29550D01*
G01X17499Y29550D01*
G01X17499Y28450D01*
G37*
G36*
G01X14475Y28624D02*
G01X13875Y28624D01*
G01X13875Y27975D01*
G01X14475Y27975D01*
G01X14475Y28624D01*
G37*
G36*
G01X15323Y28624D02*
G01X14723Y28624D01*
G01X14723Y27975D01*
G01X15323Y27975D01*
G01X15323Y28624D01*
G37*
G36*
G01X10262Y34179D02*
G01X8848Y35593D01*
G01X8530Y35275D01*
G01X9944Y33861D01*
G01X10262Y34179D01*
G37*
G36*
G01X9802Y33719D02*
G01X8388Y35133D01*
G01X8070Y34815D01*
G01X9484Y33401D01*
G01X9802Y33719D01*
G37*
G36*
G01X9343Y33260D02*
G01X7929Y34674D01*
G01X7610Y34356D01*
G01X9025Y32941D01*
G01X9343Y33260D01*
G37*
G36*
G01X8883Y32800D02*
G01X7469Y34214D01*
G01X7151Y33896D01*
G01X8565Y32482D01*
G01X8883Y32800D01*
G37*
G36*
G01X8424Y32340D02*
G01X7009Y33755D01*
G01X6691Y33436D01*
G01X8105Y32022D01*
G01X8424Y32340D01*
G37*
G36*
G01X7299Y8999D02*
G01X8900Y8999D01*
G01X8900Y10999D01*
G01X7299Y10999D01*
G01X7299Y8999D01*
G37*
G36*
G01X10499Y8999D02*
G01X12100Y8999D01*
G01X12100Y10999D01*
G01X10499Y10999D01*
G01X10499Y8999D01*
G37*
G36*
G01X6145Y21141D02*
G01X6145Y22441D01*
G01X5664Y22441D01*
G01X5664Y21141D01*
G01X6145Y21141D01*
G37*
G36*
G01X4875Y21141D02*
G01X4875Y22441D01*
G01X4394Y22441D01*
G01X4394Y21141D01*
G01X4875Y21141D01*
G37*
G36*
G01X3605Y21141D02*
G01X3605Y22441D01*
G01X3124Y22441D01*
G01X3124Y21141D01*
G01X3605Y21141D01*
G37*
G36*
G01X2335Y21141D02*
G01X2335Y22441D01*
G01X1854Y22441D01*
G01X1854Y21141D01*
G01X2335Y21141D01*
G37*
G36*
G01X2335Y26958D02*
G01X2335Y28258D01*
G01X1854Y28258D01*
G01X1854Y26958D01*
G01X2335Y26958D01*
G37*
G36*
G01X3605Y26958D02*
G01X3605Y28258D01*
G01X3124Y28258D01*
G01X3124Y26958D01*
G01X3605Y26958D01*
G37*
G36*
G01X4875Y26958D02*
G01X4875Y28258D01*
G01X4394Y28258D01*
G01X4394Y26958D01*
G01X4875Y26958D01*
G37*
G36*
G01X6145Y26958D02*
G01X6145Y28258D01*
G01X5664Y28258D01*
G01X5664Y26958D01*
G01X6145Y26958D01*
G37*
G36*
G01X2249Y23450D02*
G01X5750Y23450D01*
G01X5750Y25949D01*
G01X2249Y25949D01*
G01X2249Y23450D01*
G37*
G36*
G01X19444Y32530D02*
G01X18352Y32530D01*
G01X18352Y30371D01*
G01X19444Y30371D01*
G01X19444Y32530D01*
G37*
G36*
G01X17133Y32530D02*
G01X16040Y32530D01*
G01X16040Y30371D01*
G01X17133Y30371D01*
G01X17133Y32530D01*
G37*
G36*
G01X14847Y32530D02*
G01X13754Y32530D01*
G01X13754Y30371D01*
G01X14847Y30371D01*
G01X14847Y32530D01*
G37*
G36*
G01X18339Y38728D02*
G01X14834Y38728D01*
G01X14834Y36569D01*
G01X18339Y36569D01*
G01X18339Y38728D01*
G37*
M00*
M02*
