;Layer: Drill PTH
;EasyEDA v6.4.7, 2020-12-08T13:31:26--8:00
;2666239171464f44b57efdd4127db657,11a6c599673c4091828b82ff80a72166,10
;Gerber Generator version 0.2
M48
METRIC,LZ,000.000
;Holesize 1 = 0.305 METRIC
T01C0.305
;Holesize 2 = 0.701 METRIC
T02C0.701
;Holesize 3 = 0.889 METRIC
T03C0.889
;Holesize 4 = 0.901 METRIC
T04C0.901
;Holesize 5 = 1.101 METRIC
T05C1.101
;Holesize 6 = 1.200 METRIC
T06C1.200
%
G05
G90
T01
X+015299Y+028699
X+017649Y+031249
X+013099Y+028949
X+015999Y+029500
X+032900Y+041999
X+018800Y+044999
X+022600Y+038800
X+017549Y+043500
X+015900Y+043699
X+008600Y+031540
X+013449Y+037699
X+024299Y+034599
X+024900Y+041599
X+024900Y+040699
X+023800Y+039299
X+024839Y+043099
X+022600Y+002700
X+015049Y+004900
X+013099Y+031049
X+011700Y+031499
X+010200Y+030800
X+006000Y+029500
X+016500Y+017499
X+013500Y+017799
X+024699Y+028800
X+022900Y+028699
X+003800Y+013799
X+002400Y+017599
X+002999Y+027199
X+004599Y+028100
X+007599Y+021100
X+007599Y+024499
X+014699Y+017599
X+020099Y+030900
X+024400Y+023399
X+004552Y+018110
X+008870Y+013284
X+009886Y+014300
X+006711Y+011760
X+012599Y+023400
X+012500Y+021999
X+014699Y+020100
X+012700Y+026599
X+040200Y+027100
X+026600Y+011199
X+039999Y+017899
X+039999Y+019400
X+039999Y+016799
X+012288Y+017487
X+011410Y+015199
X+043200Y+021899
X+042599Y+025700
X+028100Y+035999
X+029300Y+036000
X+022299Y+036699
X+021200Y+036599
X+023600Y+036699
X+016999Y+026299
X+018350Y+024849
X+026299Y+007999
X+018999Y+003899
X+025100Y+005499
X+027800Y+004499
X+029600Y+002700
X+034900Y+007999
X+004249Y+020361
X+019500Y+043500
X+023800Y+004099
X+028399Y+011599
X+030500Y+008199
T02
X+008772Y+038618G85X+009338Y+038052
X+003681Y+033527G85X+004247Y+032961
T03
X+014479Y+039999
X+017019Y+039999
X+021062Y+010617
X+021062Y+013157
X+021062Y+015697
X+021062Y+018237
X+021062Y+020777
X+021062Y+023317
X+021062Y+025857
X+021062Y+028397
T04
X+006156Y+031476
X+010823Y+036143
T05
X+028489Y+038099
X+031029Y+038099
X+033569Y+038099
X+036109Y+038099
T06
X+024330Y+002199
X+026870Y+002199
M30
