G04 Layer: BottomSilkLayer*
G04 EasyEDA v6.4.7, 2020-12-08T13:31:26--8:00*
G04 2666239171464f44b57efdd4127db657,11a6c599673c4091828b82ff80a72166,10*
G04 Gerber Generator version 0.2*
G04 Scale: 100 percent, Rotated: No, Reflected: No *
G04 Dimensions in millimeters *
G04 leading zeros omitted , absolute positions ,3 integer and 3 decimal *
%FSLAX33Y33*%
%MOMM*%
G90*
D02*

%ADD10C,0.254000*%
%ADD12C,0.299999*%
%ADD51C,0.203200*%
%ADD52C,0.200000*%
%ADD53C,0.202999*%
%ADD55C,0.152400*%
%ADD57C,0.200660*%

%LPD*%

%LPD*%
G36*
G01X32251Y28029D02*
G01X32210Y28032D01*
G01X32153Y28028D01*
G01X32106Y28016D01*
G01X32075Y27999D01*
G01X32064Y27978D01*
G01X32069Y27960D01*
G01X32083Y27928D01*
G01X32106Y27884D01*
G01X32137Y27830D01*
G01X32173Y27767D01*
G01X32216Y27698D01*
G01X32263Y27625D01*
G01X32313Y27548D01*
G01X32353Y27488D01*
G01X32389Y27433D01*
G01X32420Y27385D01*
G01X32448Y27341D01*
G01X32470Y27300D01*
G01X32488Y27263D01*
G01X32501Y27227D01*
G01X32509Y27191D01*
G01X32512Y27156D01*
G01X32510Y27120D01*
G01X32503Y27082D01*
G01X32490Y27042D01*
G01X32472Y26997D01*
G01X32448Y26949D01*
G01X32419Y26895D01*
G01X32383Y26834D01*
G01X32342Y26766D01*
G01X32295Y26691D01*
G01X32241Y26605D01*
G01X32182Y26511D01*
G01X31994Y26212D01*
G01X32169Y26212D01*
G01X32221Y26215D01*
G01X32265Y26223D01*
G01X32305Y26238D01*
G01X32342Y26263D01*
G01X32379Y26300D01*
G01X32417Y26350D01*
G01X32459Y26414D01*
G01X32507Y26494D01*
G01X32574Y26606D01*
G01X32635Y26702D01*
G01X32685Y26772D01*
G01X32716Y26804D01*
G01X32748Y26792D01*
G01X32801Y26737D01*
G01X32868Y26649D01*
G01X32941Y26536D01*
G01X32989Y26458D01*
G01X33034Y26393D01*
G01X33075Y26341D01*
G01X33115Y26299D01*
G01X33154Y26268D01*
G01X33195Y26246D01*
G01X33236Y26231D01*
G01X33281Y26223D01*
G01X33344Y26219D01*
G01X33396Y26221D01*
G01X33431Y26230D01*
G01X33444Y26244D01*
G01X33439Y26260D01*
G01X33423Y26292D01*
G01X33398Y26338D01*
G01X33364Y26396D01*
G01X33324Y26464D01*
G01X33278Y26539D01*
G01X33227Y26621D01*
G01X33173Y26707D01*
G01X32901Y27131D01*
G01X33173Y27555D01*
G01X33227Y27641D01*
G01X33278Y27722D01*
G01X33324Y27796D01*
G01X33364Y27862D01*
G01X33398Y27918D01*
G01X33423Y27962D01*
G01X33439Y27991D01*
G01X33444Y28005D01*
G01X33432Y28015D01*
G01X33400Y28024D01*
G01X33352Y28030D01*
G01X33294Y28032D01*
G01X33252Y28029D01*
G01X33212Y28018D01*
G01X33174Y28000D01*
G01X33136Y27972D01*
G01X33096Y27934D01*
G01X33054Y27884D01*
G01X33009Y27822D01*
G01X32958Y27747D01*
G01X32883Y27637D01*
G01X32815Y27547D01*
G01X32760Y27486D01*
G01X32728Y27463D01*
G01X32698Y27486D01*
G01X32648Y27547D01*
G01X32586Y27637D01*
G01X32519Y27747D01*
G01X32474Y27823D01*
G01X32434Y27885D01*
G01X32396Y27935D01*
G01X32360Y27972D01*
G01X32324Y28000D01*
G01X32288Y28018D01*
G01X32251Y28029D01*
G37*

%LPD*%
G36*
G01X34044Y26212D02*
G01X34044Y28039D01*
G01X33714Y28003D01*
G01X33698Y27108D01*
G01X33681Y26212D01*
G01X34044Y26212D01*
G37*

%LPD*%
G36*
G01X37527Y28032D02*
G01X36266Y28032D01*
G01X36266Y27889D01*
G01X36267Y27843D01*
G01X36275Y27808D01*
G01X36293Y27783D01*
G01X36329Y27766D01*
G01X36387Y27755D01*
G01X36472Y27750D01*
G01X36590Y27748D01*
G01X36746Y27747D01*
G01X37227Y27747D01*
G01X37227Y27236D01*
G01X36836Y27236D01*
G01X36711Y27235D01*
G01X36616Y27233D01*
G01X36547Y27227D01*
G01X36500Y27216D01*
G01X36470Y27199D01*
G01X36454Y27173D01*
G01X36447Y27139D01*
G01X36446Y27093D01*
G01X36447Y27048D01*
G01X36454Y27013D01*
G01X36470Y26988D01*
G01X36500Y26971D01*
G01X36547Y26960D01*
G01X36616Y26954D01*
G01X36711Y26952D01*
G01X36836Y26951D01*
G01X37227Y26951D01*
G01X37227Y26497D01*
G01X36746Y26497D01*
G01X36590Y26496D01*
G01X36472Y26494D01*
G01X36387Y26488D01*
G01X36329Y26478D01*
G01X36293Y26460D01*
G01X36275Y26436D01*
G01X36267Y26401D01*
G01X36266Y26354D01*
G01X36266Y26212D01*
G01X37527Y26212D01*
G01X37527Y28032D01*
G37*

%LPD*%
G36*
G01X39715Y28032D02*
G01X39567Y28032D01*
G01X39567Y26212D01*
G01X39715Y26212D01*
G01X39761Y26214D01*
G01X39797Y26221D01*
G01X39823Y26236D01*
G01X39843Y26264D01*
G01X39857Y26308D01*
G01X39867Y26371D01*
G01X39874Y26456D01*
G01X39880Y26568D01*
G01X39898Y26923D01*
G01X40648Y26957D01*
G01X40648Y26584D01*
G01X40649Y26465D01*
G01X40651Y26375D01*
G01X40658Y26309D01*
G01X40669Y26263D01*
G01X40687Y26235D01*
G01X40714Y26220D01*
G01X40750Y26213D01*
G01X40798Y26212D01*
G01X40949Y26212D01*
G01X40949Y28032D01*
G01X40798Y28032D01*
G01X40750Y28031D01*
G01X40713Y28024D01*
G01X40686Y28008D01*
G01X40669Y27977D01*
G01X40657Y27929D01*
G01X40651Y27858D01*
G01X40648Y27760D01*
G01X40648Y27230D01*
G01X39898Y27264D01*
G01X39880Y27648D01*
G01X39874Y27769D01*
G01X39867Y27862D01*
G01X39857Y27930D01*
G01X39844Y27977D01*
G01X39824Y28006D01*
G01X39797Y28023D01*
G01X39761Y28030D01*
G01X39715Y28032D01*
G37*

%LPD*%
G36*
G01X42569Y28032D02*
G01X42085Y28032D01*
G01X41979Y28031D01*
G01X41888Y28030D01*
G01X41812Y28028D01*
G01X41747Y28023D01*
G01X41692Y28016D01*
G01X41645Y28007D01*
G01X41604Y27995D01*
G01X41567Y27978D01*
G01X41533Y27958D01*
G01X41499Y27932D01*
G01X41463Y27902D01*
G01X41424Y27866D01*
G01X41380Y27820D01*
G01X41343Y27774D01*
G01X41312Y27726D01*
G01X41287Y27676D01*
G01X41268Y27625D01*
G01X41255Y27571D01*
G01X41249Y27516D01*
G01X41248Y27459D01*
G01X41254Y27400D01*
G01X41266Y27338D01*
G01X41284Y27274D01*
G01X41308Y27208D01*
G01X41331Y27165D01*
G01X41363Y27123D01*
G01X41403Y27084D01*
G01X41452Y27047D01*
G01X41506Y27014D01*
G01X41568Y26984D01*
G01X41634Y26958D01*
G01X41707Y26936D01*
G01X41782Y26918D01*
G01X41861Y26905D01*
G01X41943Y26897D01*
G01X42027Y26894D01*
G01X42269Y26894D01*
G01X42269Y26445D01*
G01X42272Y26362D01*
G01X42279Y26302D01*
G01X42290Y26260D01*
G01X42309Y26234D01*
G01X42335Y26220D01*
G01X42372Y26213D01*
G01X42419Y26212D01*
G01X42569Y26212D01*
G01X42569Y28032D01*
G37*

%LPC*%
G36*
G01X42269Y27747D02*
G01X42003Y27747D01*
G01X41944Y27746D01*
G01X41887Y27741D01*
G01X41834Y27734D01*
G01X41784Y27723D01*
G01X41740Y27710D01*
G01X41701Y27695D01*
G01X41668Y27678D01*
G01X41643Y27658D01*
G01X41605Y27617D01*
G01X41578Y27576D01*
G01X41559Y27534D01*
G01X41550Y27493D01*
G01X41549Y27452D01*
G01X41556Y27412D01*
G01X41571Y27374D01*
G01X41594Y27338D01*
G01X41624Y27304D01*
G01X41661Y27274D01*
G01X41705Y27247D01*
G01X41755Y27223D01*
G01X41810Y27205D01*
G01X41871Y27190D01*
G01X41937Y27182D01*
G01X42008Y27179D01*
G01X42269Y27179D01*
G01X42269Y27747D01*
G37*

%LPD*%
G36*
G01X34765Y28032D02*
G01X34465Y28032D01*
G01X34465Y26205D01*
G01X34660Y26223D01*
G01X34692Y26226D01*
G01X34722Y26231D01*
G01X34749Y26238D01*
G01X34776Y26249D01*
G01X34801Y26262D01*
G01X34827Y26280D01*
G01X34853Y26303D01*
G01X34880Y26332D01*
G01X34909Y26367D01*
G01X34941Y26410D01*
G01X34975Y26460D01*
G01X35013Y26520D01*
G01X35056Y26588D01*
G01X35103Y26667D01*
G01X35156Y26757D01*
G01X35215Y26858D01*
G01X35576Y27475D01*
G01X35592Y26843D01*
G01X35596Y26699D01*
G01X35600Y26578D01*
G01X35604Y26479D01*
G01X35610Y26400D01*
G01X35617Y26339D01*
G01X35626Y26292D01*
G01X35637Y26258D01*
G01X35653Y26236D01*
G01X35672Y26222D01*
G01X35695Y26215D01*
G01X35723Y26213D01*
G01X35757Y26212D01*
G01X35906Y26212D01*
G01X35906Y28032D01*
G01X35741Y28031D01*
G01X35705Y28030D01*
G01X35673Y28024D01*
G01X35642Y28012D01*
G01X35610Y27993D01*
G01X35578Y27966D01*
G01X35543Y27929D01*
G01X35505Y27879D01*
G01X35462Y27817D01*
G01X35412Y27740D01*
G01X35356Y27647D01*
G01X35291Y27537D01*
G01X35215Y27407D01*
G01X35166Y27323D01*
G01X35118Y27242D01*
G01X35072Y27165D01*
G01X35027Y27093D01*
G01X34986Y27026D01*
G01X34948Y26966D01*
G01X34913Y26913D01*
G01X34882Y26868D01*
G01X34856Y26832D01*
G01X34835Y26805D01*
G01X34820Y26788D01*
G01X34810Y26782D01*
G01X34804Y26788D01*
G01X34798Y26804D01*
G01X34793Y26831D01*
G01X34787Y26867D01*
G01X34783Y26912D01*
G01X34778Y26965D01*
G01X34774Y27025D01*
G01X34771Y27091D01*
G01X34768Y27164D01*
G01X34767Y27240D01*
G01X34765Y27322D01*
G01X34765Y28032D01*
G37*

%LPD*%
G36*
G01X38620Y28029D02*
G01X38560Y28031D01*
G01X38500Y28030D01*
G01X38441Y28026D01*
G01X38383Y28017D01*
G01X38328Y28006D01*
G01X38277Y27992D01*
G01X38229Y27974D01*
G01X38187Y27952D01*
G01X38151Y27928D01*
G01X38112Y27896D01*
G01X38078Y27865D01*
G01X38047Y27832D01*
G01X38019Y27798D01*
G01X37995Y27762D01*
G01X37973Y27725D01*
G01X37954Y27684D01*
G01X37939Y27641D01*
G01X37925Y27593D01*
G01X37914Y27541D01*
G01X37905Y27485D01*
G01X37898Y27423D01*
G01X37893Y27355D01*
G01X37889Y27280D01*
G01X37887Y27200D01*
G01X37887Y27024D01*
G01X37889Y26946D01*
G01X37892Y26874D01*
G01X37897Y26810D01*
G01X37903Y26753D01*
G01X37911Y26700D01*
G01X37921Y26652D01*
G01X37933Y26609D01*
G01X37947Y26568D01*
G01X37963Y26531D01*
G01X37981Y26494D01*
G01X38002Y26459D01*
G01X38032Y26417D01*
G01X38065Y26379D01*
G01X38101Y26343D01*
G01X38139Y26311D01*
G01X38180Y26283D01*
G01X38222Y26258D01*
G01X38267Y26236D01*
G01X38313Y26219D01*
G01X38361Y26204D01*
G01X38410Y26193D01*
G01X38459Y26186D01*
G01X38510Y26182D01*
G01X38561Y26182D01*
G01X38612Y26186D01*
G01X38664Y26192D01*
G01X38715Y26203D01*
G01X38766Y26217D01*
G01X38817Y26235D01*
G01X38866Y26256D01*
G01X38915Y26281D01*
G01X38961Y26310D01*
G01X39007Y26342D01*
G01X39051Y26378D01*
G01X39093Y26417D01*
G01X39122Y26447D01*
G01X39146Y26477D01*
G01X39168Y26508D01*
G01X39186Y26541D01*
G01X39202Y26578D01*
G01X39215Y26618D01*
G01X39225Y26664D01*
G01X39235Y26716D01*
G01X39242Y26777D01*
G01X39248Y26846D01*
G01X39254Y26925D01*
G01X39259Y27014D01*
G01X39262Y27106D01*
G01X39263Y27191D01*
G01X39262Y27271D01*
G01X39258Y27345D01*
G01X39252Y27413D01*
G01X39243Y27477D01*
G01X39231Y27537D01*
G01X39216Y27592D01*
G01X39198Y27643D01*
G01X39177Y27691D01*
G01X39153Y27735D01*
G01X39126Y27777D01*
G01X39095Y27815D01*
G01X39061Y27852D01*
G01X39023Y27887D01*
G01X38981Y27920D01*
G01X38942Y27945D01*
G01X38897Y27968D01*
G01X38848Y27986D01*
G01X38794Y28002D01*
G01X38738Y28014D01*
G01X38680Y28023D01*
G01X38620Y28029D01*
G37*

%LPC*%
G36*
G01X38632Y27738D02*
G01X38565Y27743D01*
G01X38497Y27735D01*
G01X38430Y27714D01*
G01X38366Y27680D01*
G01X38307Y27633D01*
G01X38280Y27600D01*
G01X38255Y27556D01*
G01X38234Y27503D01*
G01X38217Y27441D01*
G01X38203Y27374D01*
G01X38192Y27301D01*
G01X38185Y27225D01*
G01X38181Y27147D01*
G01X38181Y27069D01*
G01X38184Y26991D01*
G01X38191Y26915D01*
G01X38201Y26843D01*
G01X38215Y26777D01*
G01X38233Y26717D01*
G01X38255Y26665D01*
G01X38280Y26623D01*
G01X38312Y26588D01*
G01X38349Y26559D01*
G01X38391Y26535D01*
G01X38437Y26517D01*
G01X38485Y26505D01*
G01X38536Y26498D01*
G01X38587Y26498D01*
G01X38637Y26503D01*
G01X38686Y26514D01*
G01X38733Y26532D01*
G01X38775Y26555D01*
G01X38813Y26586D01*
G01X38832Y26610D01*
G01X38850Y26643D01*
G01X38865Y26684D01*
G01X38878Y26732D01*
G01X38889Y26785D01*
G01X38898Y26844D01*
G01X38905Y26906D01*
G01X38910Y26973D01*
G01X38913Y27040D01*
G01X38914Y27109D01*
G01X38912Y27178D01*
G01X38908Y27246D01*
G01X38903Y27312D01*
G01X38896Y27376D01*
G01X38886Y27435D01*
G01X38874Y27490D01*
G01X38861Y27539D01*
G01X38845Y27582D01*
G01X38828Y27617D01*
G01X38808Y27644D01*
G01X38755Y27688D01*
G01X38696Y27719D01*
G01X38632Y27738D01*
G37*

%LPD*%
G36*
G01X30017Y25302D02*
G01X29841Y25302D01*
G01X30142Y24735D01*
G01X30188Y24646D01*
G01X30230Y24566D01*
G01X30266Y24493D01*
G01X30299Y24426D01*
G01X30327Y24365D01*
G01X30352Y24309D01*
G01X30373Y24256D01*
G01X30390Y24206D01*
G01X30405Y24159D01*
G01X30416Y24113D01*
G01X30425Y24068D01*
G01X30433Y24023D01*
G01X30437Y23977D01*
G01X30441Y23929D01*
G01X30442Y23878D01*
G01X30443Y23825D01*
G01X30443Y23716D01*
G01X30446Y23633D01*
G01X30452Y23573D01*
G01X30464Y23531D01*
G01X30482Y23504D01*
G01X30509Y23490D01*
G01X30545Y23484D01*
G01X30593Y23483D01*
G01X30640Y23484D01*
G01X30677Y23490D01*
G01X30703Y23505D01*
G01X30722Y23532D01*
G01X30733Y23576D01*
G01X30740Y23639D01*
G01X30742Y23725D01*
G01X30743Y23838D01*
G01X30744Y23894D01*
G01X30745Y23945D01*
G01X30748Y23994D01*
G01X30753Y24041D01*
G01X30759Y24086D01*
G01X30767Y24131D01*
G01X30778Y24175D01*
G01X30791Y24221D01*
G01X30807Y24268D01*
G01X30825Y24318D01*
G01X30847Y24370D01*
G01X30872Y24426D01*
G01X30901Y24487D01*
G01X30934Y24554D01*
G01X30971Y24626D01*
G01X31012Y24705D01*
G01X31066Y24809D01*
G01X31117Y24907D01*
G01X31163Y24998D01*
G01X31202Y25079D01*
G01X31235Y25148D01*
G01X31260Y25203D01*
G01X31276Y25241D01*
G01X31282Y25260D01*
G01X31270Y25276D01*
G01X31238Y25290D01*
G01X31189Y25299D01*
G01X31129Y25302D01*
G01X31083Y25299D01*
G01X31043Y25288D01*
G01X31006Y25266D01*
G01X30968Y25231D01*
G01X30930Y25179D01*
G01X30888Y25108D01*
G01X30839Y25015D01*
G01X30782Y24897D01*
G01X30587Y24492D01*
G01X30390Y24897D01*
G01X30329Y25020D01*
G01X30279Y25116D01*
G01X30235Y25187D01*
G01X30196Y25238D01*
G01X30158Y25271D01*
G01X30118Y25291D01*
G01X30072Y25300D01*
G01X30017Y25302D01*
G37*

%LPD*%
G36*
G01X32724Y25302D02*
G01X32149Y25302D01*
G01X32063Y25300D01*
G01X31989Y25298D01*
G01X31925Y25293D01*
G01X31869Y25286D01*
G01X31821Y25278D01*
G01X31777Y25266D01*
G01X31738Y25251D01*
G01X31701Y25233D01*
G01X31664Y25211D01*
G01X31627Y25185D01*
G01X31588Y25155D01*
G01X31536Y25111D01*
G01X31494Y25071D01*
G01X31462Y25031D01*
G01X31438Y24989D01*
G01X31421Y24944D01*
G01X31410Y24892D01*
G01X31405Y24833D01*
G01X31403Y24762D01*
G01X31405Y24692D01*
G01X31410Y24633D01*
G01X31421Y24582D01*
G01X31437Y24537D01*
G01X31460Y24496D01*
G01X31490Y24457D01*
G01X31529Y24418D01*
G01X31578Y24377D01*
G01X31751Y24238D01*
G01X31578Y23937D01*
G01X31529Y23850D01*
G01X31488Y23775D01*
G01X31457Y23711D01*
G01X31433Y23656D01*
G01X31419Y23610D01*
G01X31412Y23572D01*
G01X31414Y23541D01*
G01X31425Y23519D01*
G01X31443Y23502D01*
G01X31470Y23491D01*
G01X31505Y23485D01*
G01X31548Y23483D01*
G01X31589Y23486D01*
G01X31628Y23498D01*
G01X31666Y23520D01*
G01X31705Y23554D01*
G01X31746Y23601D01*
G01X31790Y23663D01*
G01X31841Y23741D01*
G01X31898Y23838D01*
G01X31955Y23934D01*
G01X32006Y24013D01*
G01X32052Y24076D01*
G01X32094Y24125D01*
G01X32135Y24161D01*
G01X32176Y24187D01*
G01X32218Y24203D01*
G01X32263Y24212D01*
G01X32316Y24217D01*
G01X32356Y24216D01*
G01X32384Y24204D01*
G01X32403Y24180D01*
G01X32415Y24136D01*
G01X32421Y24070D01*
G01X32423Y23978D01*
G01X32424Y23856D01*
G01X32424Y23737D01*
G01X32427Y23646D01*
G01X32433Y23580D01*
G01X32444Y23534D01*
G01X32462Y23506D01*
G01X32489Y23490D01*
G01X32525Y23484D01*
G01X32574Y23483D01*
G01X32724Y23483D01*
G01X32724Y25302D01*
G37*

%LPC*%
G36*
G01X32424Y25018D02*
G01X32126Y25018D01*
G01X32045Y25017D01*
G01X31978Y25013D01*
G01X31922Y25006D01*
G01X31876Y24995D01*
G01X31839Y24981D01*
G01X31809Y24961D01*
G01X31785Y24937D01*
G01X31766Y24908D01*
G01X31738Y24856D01*
G01X31719Y24811D01*
G01X31709Y24771D01*
G01X31709Y24735D01*
G01X31717Y24701D01*
G01X31734Y24668D01*
G01X31761Y24633D01*
G01X31798Y24596D01*
G01X31823Y24576D01*
G01X31855Y24559D01*
G01X31894Y24543D01*
G01X31939Y24531D01*
G01X31988Y24520D01*
G01X32041Y24512D01*
G01X32098Y24508D01*
G01X32158Y24506D01*
G01X32424Y24506D01*
G01X32424Y25018D01*
G37*

%LPD*%
G36*
G01X34285Y25162D02*
G01X34285Y25306D01*
G01X33610Y25290D01*
G01X33460Y25286D01*
G01X33334Y25282D01*
G01X33230Y25278D01*
G01X33145Y25273D01*
G01X33078Y25267D01*
G01X33026Y25258D01*
G01X32987Y25247D01*
G01X32959Y25234D01*
G01X32940Y25218D01*
G01X32927Y25198D01*
G01X32920Y25174D01*
G01X32915Y25146D01*
G01X32911Y25107D01*
G01X32912Y25077D01*
G01X32922Y25054D01*
G01X32942Y25038D01*
G01X32975Y25027D01*
G01X33022Y25021D01*
G01X33086Y25019D01*
G01X33170Y25018D01*
G01X33444Y25018D01*
G01X33444Y23483D01*
G01X33805Y23483D01*
G01X33805Y25018D01*
G01X34044Y25018D01*
G01X34173Y25022D01*
G01X34246Y25041D01*
G01X34278Y25084D01*
G01X34285Y25162D01*
G37*

%LPD*%
G36*
G01X35785Y25302D02*
G01X34525Y25302D01*
G01X34525Y25160D01*
G01X34526Y25114D01*
G01X34533Y25079D01*
G01X34551Y25054D01*
G01X34585Y25037D01*
G01X34639Y25026D01*
G01X34719Y25021D01*
G01X34829Y25018D01*
G01X35425Y25018D01*
G01X35425Y24506D01*
G01X34911Y24506D01*
G01X34816Y24503D01*
G01X34746Y24497D01*
G01X34699Y24486D01*
G01X34669Y24469D01*
G01X34653Y24444D01*
G01X34646Y24409D01*
G01X34645Y24364D01*
G01X34646Y24319D01*
G01X34653Y24284D01*
G01X34669Y24259D01*
G01X34699Y24242D01*
G01X34746Y24231D01*
G01X34816Y24225D01*
G01X34911Y24222D01*
G01X35425Y24222D01*
G01X35425Y23767D01*
G01X34829Y23767D01*
G01X34719Y23764D01*
G01X34639Y23758D01*
G01X34585Y23748D01*
G01X34551Y23731D01*
G01X34533Y23706D01*
G01X34526Y23671D01*
G01X34525Y23625D01*
G01X34525Y23483D01*
G01X35785Y23483D01*
G01X35785Y25302D01*
G37*

%LPD*%
G36*
G01X36352Y25301D02*
G01X36317Y25302D01*
G01X36251Y25300D01*
G01X36196Y25293D01*
G01X36159Y25282D01*
G01X36145Y25270D01*
G01X36151Y25256D01*
G01X36167Y25230D01*
G01X36193Y25194D01*
G01X36226Y25147D01*
G01X36266Y25093D01*
G01X36313Y25033D01*
G01X36364Y24968D01*
G01X36419Y24900D01*
G01X36693Y24563D01*
G01X36359Y24037D01*
G01X36288Y23925D01*
G01X36229Y23830D01*
G01X36181Y23750D01*
G01X36143Y23685D01*
G01X36116Y23632D01*
G01X36097Y23590D01*
G01X36087Y23558D01*
G01X36085Y23534D01*
G01X36091Y23517D01*
G01X36104Y23505D01*
G01X36124Y23497D01*
G01X36150Y23492D01*
G01X36198Y23487D01*
G01X36242Y23485D01*
G01X36282Y23489D01*
G01X36320Y23498D01*
G01X36356Y23516D01*
G01X36391Y23540D01*
G01X36428Y23574D01*
G01X36467Y23618D01*
G01X36508Y23672D01*
G01X36554Y23738D01*
G01X36605Y23816D01*
G01X36662Y23908D01*
G01X36896Y24288D01*
G01X37061Y24100D01*
G01X37102Y24052D01*
G01X37136Y24003D01*
G01X37165Y23955D01*
G01X37187Y23907D01*
G01X37205Y23857D01*
G01X37217Y23806D01*
G01X37224Y23753D01*
G01X37227Y23698D01*
G01X37231Y23583D01*
G01X37251Y23518D01*
G01X37297Y23489D01*
G01X37376Y23483D01*
G01X37527Y23483D01*
G01X37527Y25302D01*
G01X37376Y25302D01*
G01X37328Y25301D01*
G01X37291Y25294D01*
G01X37265Y25277D01*
G01X37246Y25245D01*
G01X37235Y25194D01*
G01X37229Y25118D01*
G01X37227Y25014D01*
G01X37227Y24875D01*
G01X37225Y24790D01*
G01X37222Y24710D01*
G01X37218Y24638D01*
G01X37212Y24575D01*
G01X37206Y24522D01*
G01X37198Y24483D01*
G01X37188Y24458D01*
G01X37179Y24449D01*
G01X37163Y24458D01*
G01X37136Y24483D01*
G01X37097Y24522D01*
G01X37051Y24575D01*
G01X36998Y24638D01*
G01X36939Y24710D01*
G01X36875Y24790D01*
G01X36810Y24875D01*
G01X36746Y24960D01*
G01X36689Y25032D01*
G01X36639Y25094D01*
G01X36594Y25146D01*
G01X36553Y25189D01*
G01X36516Y25224D01*
G01X36481Y25251D01*
G01X36449Y25272D01*
G01X36417Y25286D01*
G01X36385Y25296D01*
G01X36352Y25301D01*
G37*

%LPD*%
G36*
G01X38612Y25302D02*
G01X38544Y25302D01*
G01X38478Y25296D01*
G01X38413Y25284D01*
G01X38350Y25268D01*
G01X38290Y25245D01*
G01X38234Y25217D01*
G01X38181Y25184D01*
G01X38132Y25146D01*
G01X38061Y25075D01*
G01X37997Y24998D01*
G01X37946Y24924D01*
G01X37917Y24861D01*
G01X37903Y24797D01*
G01X37911Y24758D01*
G01X37946Y24739D01*
G01X38011Y24734D01*
G01X38073Y24745D01*
G01X38145Y24775D01*
G01X38218Y24821D01*
G01X38282Y24875D01*
G01X38348Y24931D01*
G01X38424Y24976D01*
G01X38502Y25007D01*
G01X38571Y25018D01*
G01X38626Y25014D01*
G01X38676Y25001D01*
G01X38721Y24981D01*
G01X38761Y24951D01*
G01X38796Y24913D01*
G01X38826Y24866D01*
G01X38851Y24810D01*
G01X38871Y24745D01*
G01X38887Y24671D01*
G01X38898Y24588D01*
G01X38905Y24495D01*
G01X38907Y24392D01*
G01X38906Y24312D01*
G01X38902Y24237D01*
G01X38896Y24168D01*
G01X38887Y24106D01*
G01X38875Y24049D01*
G01X38861Y23998D01*
G01X38843Y23952D01*
G01X38823Y23912D01*
G01X38800Y23877D01*
G01X38773Y23847D01*
G01X38744Y23822D01*
G01X38711Y23802D01*
G01X38675Y23786D01*
G01X38635Y23775D01*
G01X38592Y23769D01*
G01X38545Y23767D01*
G01X38461Y23775D01*
G01X38388Y23801D01*
G01X38326Y23845D01*
G01X38271Y23909D01*
G01X38221Y23968D01*
G01X38161Y24012D01*
G01X38096Y24041D01*
G01X38030Y24051D01*
G01X37974Y24048D01*
G01X37933Y24037D01*
G01X37906Y24019D01*
G01X37894Y23991D01*
G01X37896Y23952D01*
G01X37912Y23903D01*
G01X37942Y23841D01*
G01X37986Y23766D01*
G01X38019Y23719D01*
G01X38054Y23677D01*
G01X38093Y23639D01*
G01X38134Y23604D01*
G01X38180Y23575D01*
G01X38229Y23550D01*
G01X38282Y23529D01*
G01X38339Y23512D01*
G01X38401Y23499D01*
G01X38467Y23490D01*
G01X38538Y23485D01*
G01X38614Y23483D01*
G01X38665Y23484D01*
G01X38713Y23489D01*
G01X38760Y23498D01*
G01X38804Y23509D01*
G01X38847Y23525D01*
G01X38888Y23543D01*
G01X38926Y23564D01*
G01X38963Y23589D01*
G01X38998Y23616D01*
G01X39031Y23647D01*
G01X39061Y23680D01*
G01X39090Y23716D01*
G01X39116Y23755D01*
G01X39141Y23797D01*
G01X39163Y23842D01*
G01X39183Y23888D01*
G01X39200Y23938D01*
G01X39215Y23991D01*
G01X39229Y24045D01*
G01X39239Y24102D01*
G01X39247Y24162D01*
G01X39253Y24224D01*
G01X39256Y24288D01*
G01X39257Y24354D01*
G01X39256Y24423D01*
G01X39252Y24493D01*
G01X39245Y24566D01*
G01X39236Y24640D01*
G01X39223Y24722D01*
G01X39208Y24797D01*
G01X39189Y24866D01*
G01X39168Y24930D01*
G01X39143Y24989D01*
G01X39116Y25042D01*
G01X39085Y25089D01*
G01X39052Y25131D01*
G01X39016Y25167D01*
G01X38977Y25199D01*
G01X38934Y25224D01*
G01X38889Y25245D01*
G01X38820Y25268D01*
G01X38751Y25285D01*
G01X38681Y25297D01*
G01X38612Y25302D01*
G37*

%LPD*%
G36*
G01X40328Y25301D02*
G01X40251Y25302D01*
G01X40171Y25301D01*
G01X40102Y25295D01*
G01X40042Y25284D01*
G01X39989Y25267D01*
G01X39938Y25242D01*
G01X39887Y25208D01*
G01X39833Y25164D01*
G01X39772Y25109D01*
G01X39725Y25064D01*
G01X39687Y25026D01*
G01X39655Y24990D01*
G01X39630Y24954D01*
G01X39610Y24917D01*
G01X39594Y24877D01*
G01X39584Y24829D01*
G01X39576Y24774D01*
G01X39571Y24708D01*
G01X39569Y24629D01*
G01X39568Y24535D01*
G01X39567Y24424D01*
G01X39568Y24335D01*
G01X39571Y24252D01*
G01X39575Y24174D01*
G01X39582Y24101D01*
G01X39590Y24033D01*
G01X39601Y23970D01*
G01X39614Y23911D01*
G01X39629Y23856D01*
G01X39646Y23806D01*
G01X39666Y23760D01*
G01X39689Y23718D01*
G01X39714Y23680D01*
G01X39742Y23646D01*
G01X39774Y23616D01*
G01X39808Y23589D01*
G01X39845Y23565D01*
G01X39885Y23545D01*
G01X39929Y23527D01*
G01X39976Y23513D01*
G01X40026Y23502D01*
G01X40080Y23493D01*
G01X40138Y23487D01*
G01X40199Y23484D01*
G01X40265Y23483D01*
G01X40329Y23484D01*
G01X40390Y23489D01*
G01X40447Y23497D01*
G01X40501Y23507D01*
G01X40551Y23522D01*
G01X40599Y23540D01*
G01X40642Y23561D01*
G01X40683Y23586D01*
G01X40721Y23615D01*
G01X40755Y23647D01*
G01X40787Y23683D01*
G01X40815Y23723D01*
G01X40840Y23767D01*
G01X40863Y23815D01*
G01X40883Y23867D01*
G01X40899Y23923D01*
G01X40914Y23983D01*
G01X40925Y24048D01*
G01X40933Y24118D01*
G01X40939Y24191D01*
G01X40943Y24269D01*
G01X40944Y24352D01*
G01X40943Y24440D01*
G01X40939Y24533D01*
G01X40933Y24628D01*
G01X40928Y24710D01*
G01X40921Y24779D01*
G01X40913Y24838D01*
G01X40903Y24889D01*
G01X40890Y24932D01*
G01X40873Y24969D01*
G01X40854Y25004D01*
G01X40829Y25036D01*
G01X40799Y25068D01*
G01X40763Y25101D01*
G01X40721Y25138D01*
G01X40665Y25182D01*
G01X40613Y25218D01*
G01X40562Y25247D01*
G01X40510Y25269D01*
G01X40455Y25284D01*
G01X40395Y25295D01*
G01X40328Y25301D01*
G37*

%LPC*%
G36*
G01X40289Y25025D02*
G01X40247Y25025D01*
G01X40203Y25021D01*
G01X40158Y25010D01*
G01X40111Y24992D01*
G01X40063Y24968D01*
G01X40014Y24937D01*
G01X39981Y24911D01*
G01X39954Y24879D01*
G01X39934Y24839D01*
G01X39919Y24789D01*
G01X39909Y24723D01*
G01X39902Y24640D01*
G01X39899Y24535D01*
G01X39898Y24406D01*
G01X39899Y24313D01*
G01X39901Y24229D01*
G01X39906Y24154D01*
G01X39913Y24087D01*
G01X39922Y24028D01*
G01X39935Y23975D01*
G01X39950Y23930D01*
G01X39968Y23892D01*
G01X39990Y23859D01*
G01X40015Y23832D01*
G01X40045Y23811D01*
G01X40078Y23793D01*
G01X40116Y23781D01*
G01X40159Y23773D01*
G01X40206Y23769D01*
G01X40258Y23767D01*
G01X40316Y23769D01*
G01X40367Y23775D01*
G01X40412Y23785D01*
G01X40451Y23801D01*
G01X40486Y23822D01*
G01X40516Y23850D01*
G01X40541Y23885D01*
G01X40564Y23927D01*
G01X40582Y23977D01*
G01X40599Y24036D01*
G01X40613Y24103D01*
G01X40626Y24181D01*
G01X40635Y24260D01*
G01X40641Y24336D01*
G01X40642Y24409D01*
G01X40640Y24479D01*
G01X40634Y24546D01*
G01X40625Y24609D01*
G01X40612Y24668D01*
G01X40596Y24724D01*
G01X40577Y24775D01*
G01X40555Y24822D01*
G01X40530Y24865D01*
G01X40503Y24903D01*
G01X40473Y24936D01*
G01X40440Y24964D01*
G01X40406Y24988D01*
G01X40368Y25006D01*
G01X40330Y25018D01*
G01X40289Y25025D01*
G37*

%LPD*%
G36*
G01X42629Y23483D02*
G01X42629Y25313D01*
G01X42083Y25294D01*
G01X41970Y25289D01*
G01X41873Y25284D01*
G01X41789Y25279D01*
G01X41719Y25272D01*
G01X41659Y25265D01*
G01X41609Y25255D01*
G01X41567Y25243D01*
G01X41532Y25229D01*
G01X41501Y25212D01*
G01X41474Y25191D01*
G01X41448Y25168D01*
G01X41423Y25140D01*
G01X41393Y25099D01*
G01X41367Y25055D01*
G01X41345Y25007D01*
G01X41329Y24957D01*
G01X41316Y24904D01*
G01X41308Y24851D01*
G01X41304Y24796D01*
G01X41304Y24740D01*
G01X41309Y24686D01*
G01X41318Y24631D01*
G01X41331Y24578D01*
G01X41349Y24528D01*
G01X41370Y24480D01*
G01X41396Y24435D01*
G01X41426Y24394D01*
G01X41460Y24357D01*
G01X41612Y24214D01*
G01X41407Y23848D01*
G01X41202Y23483D01*
G01X41391Y23483D01*
G01X41448Y23485D01*
G01X41498Y23494D01*
G01X41541Y23512D01*
G01X41582Y23543D01*
G01X41623Y23589D01*
G01X41669Y23654D01*
G01X41722Y23741D01*
G01X41786Y23852D01*
G01X41847Y23960D01*
G01X41900Y24045D01*
G01X41945Y24110D01*
G01X41986Y24157D01*
G01X42026Y24189D01*
G01X42066Y24209D01*
G01X42110Y24219D01*
G01X42161Y24222D01*
G01X42216Y24221D01*
G01X42258Y24216D01*
G01X42288Y24201D01*
G01X42308Y24174D01*
G01X42320Y24130D01*
G01X42326Y24065D01*
G01X42329Y23973D01*
G01X42329Y23852D01*
G01X42330Y23734D01*
G01X42332Y23644D01*
G01X42339Y23579D01*
G01X42350Y23534D01*
G01X42368Y23505D01*
G01X42395Y23490D01*
G01X42431Y23484D01*
G01X42479Y23483D01*
G01X42629Y23483D01*
G37*

%LPC*%
G36*
G01X42118Y25017D02*
G01X42054Y25018D01*
G01X41988Y25016D01*
G01X41921Y25011D01*
G01X41857Y25004D01*
G01X41798Y24994D01*
G01X41747Y24981D01*
G01X41708Y24966D01*
G01X41681Y24950D01*
G01X41653Y24914D01*
G01X41630Y24866D01*
G01X41615Y24814D01*
G01X41609Y24762D01*
G01X41611Y24718D01*
G01X41619Y24678D01*
G01X41632Y24644D01*
G01X41651Y24613D01*
G01X41676Y24587D01*
G01X41708Y24565D01*
G01X41745Y24546D01*
G01X41790Y24531D01*
G01X41841Y24520D01*
G01X41900Y24512D01*
G01X41967Y24508D01*
G01X42041Y24506D01*
G01X42329Y24506D01*
G01X42329Y24724D01*
G01X42326Y24811D01*
G01X42317Y24889D01*
G01X42304Y24948D01*
G01X42289Y24980D01*
G01X42264Y24994D01*
G01X42226Y25005D01*
G01X42176Y25013D01*
G01X42118Y25017D01*
G37*

%LPD*%
G36*
G01X42432Y30516D02*
G01X42415Y30519D01*
G01X42393Y30503D01*
G01X42370Y30472D01*
G01X42347Y30427D01*
G01X42325Y30370D01*
G01X42307Y30302D01*
G01X42291Y30250D01*
G01X42266Y30195D01*
G01X42233Y30139D01*
G01X42193Y30083D01*
G01X42146Y30029D01*
G01X42096Y29976D01*
G01X42043Y29928D01*
G01X41987Y29885D01*
G01X41932Y29847D01*
G01X41876Y29817D01*
G01X41822Y29795D01*
G01X41772Y29784D01*
G01X41736Y29778D01*
G01X41714Y29769D01*
G01X41706Y29758D01*
G01X41713Y29743D01*
G01X41736Y29723D01*
G01X41775Y29697D01*
G01X41833Y29664D01*
G01X41909Y29623D01*
G01X41986Y29581D01*
G01X42050Y29540D01*
G01X42103Y29499D01*
G01X42146Y29455D01*
G01X42184Y29406D01*
G01X42217Y29349D01*
G01X42247Y29281D01*
G01X42277Y29202D01*
G01X42375Y28922D01*
G01X42417Y29102D01*
G01X42437Y29174D01*
G01X42460Y29237D01*
G01X42485Y29284D01*
G01X42507Y29310D01*
G01X42514Y29311D01*
G01X42523Y29309D01*
G01X42534Y29304D01*
G01X42546Y29294D01*
G01X42561Y29281D01*
G01X42576Y29265D01*
G01X42594Y29245D01*
G01X42612Y29222D01*
G01X42632Y29196D01*
G01X42654Y29167D01*
G01X42677Y29136D01*
G01X42701Y29101D01*
G01X42726Y29063D01*
G01X42753Y29023D01*
G01X42780Y28981D01*
G01X42809Y28935D01*
G01X42838Y28888D01*
G01X42869Y28839D01*
G01X42901Y28787D01*
G01X42933Y28734D01*
G01X42966Y28678D01*
G01X43000Y28621D01*
G01X43034Y28562D01*
G01X43070Y28502D01*
G01X43105Y28440D01*
G01X43141Y28376D01*
G01X43178Y28311D01*
G01X43215Y28245D01*
G01X43252Y28178D01*
G01X43289Y28110D01*
G01X43365Y27972D01*
G01X43479Y27759D01*
G01X43594Y27542D01*
G01X43668Y27398D01*
G01X43706Y27325D01*
G01X43742Y27253D01*
G01X43779Y27181D01*
G01X43814Y27110D01*
G01X43849Y27040D01*
G01X43884Y26969D01*
G01X43918Y26900D01*
G01X43951Y26831D01*
G01X43984Y26763D01*
G01X44046Y26631D01*
G01X44076Y26567D01*
G01X44105Y26504D01*
G01X44133Y26442D01*
G01X44160Y26382D01*
G01X44186Y26324D01*
G01X44210Y26267D01*
G01X44233Y26213D01*
G01X44255Y26160D01*
G01X44276Y26109D01*
G01X44294Y26060D01*
G01X44312Y26013D01*
G01X44328Y25969D01*
G01X44343Y25928D01*
G01X44363Y25866D01*
G01X44382Y25803D01*
G01X44399Y25739D01*
G01X44416Y25674D01*
G01X44431Y25609D01*
G01X44446Y25542D01*
G01X44459Y25474D01*
G01X44471Y25407D01*
G01X44491Y25271D01*
G01X44500Y25202D01*
G01X44507Y25134D01*
G01X44513Y25066D01*
G01X44517Y24998D01*
G01X44521Y24931D01*
G01X44523Y24865D01*
G01X44524Y24799D01*
G01X44524Y24734D01*
G01X44523Y24670D01*
G01X44520Y24607D01*
G01X44517Y24546D01*
G01X44512Y24486D01*
G01X44506Y24427D01*
G01X44499Y24371D01*
G01X44490Y24316D01*
G01X44480Y24263D01*
G01X44469Y24212D01*
G01X44456Y24164D01*
G01X44443Y24118D01*
G01X44428Y24074D01*
G01X44412Y24033D01*
G01X44394Y23994D01*
G01X44368Y23942D01*
G01X44341Y23892D01*
G01X44312Y23842D01*
G01X44282Y23794D01*
G01X44251Y23747D01*
G01X44219Y23702D01*
G01X44186Y23657D01*
G01X44151Y23614D01*
G01X44114Y23571D01*
G01X44077Y23530D01*
G01X44038Y23490D01*
G01X43997Y23451D01*
G01X43954Y23412D01*
G01X43911Y23374D01*
G01X43865Y23337D01*
G01X43818Y23301D01*
G01X43769Y23265D01*
G01X43718Y23230D01*
G01X43665Y23196D01*
G01X43611Y23162D01*
G01X43584Y23146D01*
G01X43502Y23099D01*
G01X43473Y23083D01*
G01X43445Y23068D01*
G01X43416Y23053D01*
G01X43388Y23038D01*
G01X43329Y23008D01*
G01X43298Y22993D01*
G01X43268Y22979D01*
G01X43175Y22937D01*
G01X43111Y22910D01*
G01X43078Y22896D01*
G01X43012Y22870D01*
G01X42910Y22831D01*
G01X42840Y22806D01*
G01X42768Y22782D01*
G01X42695Y22758D01*
G01X42620Y22735D01*
G01X42582Y22724D01*
G01X42544Y22712D01*
G01X42466Y22690D01*
G01X42385Y22669D01*
G01X42345Y22658D01*
G01X42303Y22648D01*
G01X42220Y22628D01*
G01X42177Y22617D01*
G01X42135Y22608D01*
G01X42047Y22588D01*
G01X42003Y22579D01*
G01X41913Y22561D01*
G01X41821Y22543D01*
G01X41774Y22534D01*
G01X41727Y22526D01*
G01X41679Y22517D01*
G01X41631Y22509D01*
G01X41533Y22493D01*
G01X41433Y22477D01*
G01X41382Y22470D01*
G01X41331Y22462D01*
G01X41279Y22455D01*
G01X41226Y22448D01*
G01X41174Y22441D01*
G01X41066Y22427D01*
G01X41011Y22420D01*
G01X40956Y22414D01*
G01X40844Y22402D01*
G01X40788Y22395D01*
G01X40672Y22383D01*
G01X40614Y22378D01*
G01X40495Y22366D01*
G01X40435Y22361D01*
G01X40374Y22356D01*
G01X40188Y22341D01*
G01X40061Y22332D01*
G01X39996Y22327D01*
G01X39865Y22319D01*
G01X39799Y22315D01*
G01X39732Y22311D01*
G01X39664Y22308D01*
G01X39596Y22303D01*
G01X39527Y22300D01*
G01X39458Y22296D01*
G01X39388Y22293D01*
G01X39245Y22287D01*
G01X39173Y22284D01*
G01X39100Y22281D01*
G01X39027Y22279D01*
G01X38953Y22276D01*
G01X38878Y22274D01*
G01X38802Y22271D01*
G01X38726Y22269D01*
G01X38572Y22265D01*
G01X38493Y22263D01*
G01X38415Y22261D01*
G01X38335Y22260D01*
G01X38255Y22258D01*
G01X38173Y22257D01*
G01X38092Y22256D01*
G01X38009Y22254D01*
G01X37926Y22253D01*
G01X37842Y22252D01*
G01X37758Y22252D01*
G01X37673Y22251D01*
G01X37586Y22250D01*
G01X37412Y22250D01*
G01X37324Y22249D01*
G01X36963Y22249D01*
G01X36870Y22250D01*
G01X36777Y22250D01*
G01X36684Y22251D01*
G01X36589Y22251D01*
G01X36494Y22252D01*
G01X36398Y22253D01*
G01X36204Y22255D01*
G01X36106Y22256D01*
G01X36006Y22258D01*
G01X35907Y22259D01*
G01X35806Y22260D01*
G01X35602Y22264D01*
G01X35499Y22266D01*
G01X35395Y22268D01*
G01X35289Y22270D01*
G01X35184Y22272D01*
G01X35078Y22274D01*
G01X34970Y22277D01*
G01X34862Y22279D01*
G01X34753Y22282D01*
G01X34575Y22286D01*
G01X34399Y22290D01*
G01X34312Y22292D01*
G01X34225Y22295D01*
G01X34138Y22297D01*
G01X34053Y22299D01*
G01X33967Y22301D01*
G01X33883Y22303D01*
G01X33799Y22306D01*
G01X33716Y22308D01*
G01X33633Y22311D01*
G01X33471Y22315D01*
G01X33392Y22317D01*
G01X33313Y22320D01*
G01X33235Y22322D01*
G01X33158Y22324D01*
G01X33083Y22326D01*
G01X33009Y22328D01*
G01X32936Y22331D01*
G01X32864Y22333D01*
G01X32794Y22335D01*
G01X32725Y22338D01*
G01X32591Y22342D01*
G01X32526Y22344D01*
G01X32463Y22346D01*
G01X32402Y22348D01*
G01X32284Y22352D01*
G01X32228Y22354D01*
G01X32173Y22356D01*
G01X32121Y22358D01*
G01X32070Y22359D01*
G01X32022Y22361D01*
G01X31975Y22363D01*
G01X31930Y22365D01*
G01X31887Y22366D01*
G01X31847Y22369D01*
G01X31809Y22370D01*
G01X31773Y22372D01*
G01X31739Y22373D01*
G01X31707Y22375D01*
G01X31678Y22376D01*
G01X31651Y22378D01*
G01X31627Y22379D01*
G01X31605Y22380D01*
G01X31586Y22382D01*
G01X31570Y22383D01*
G01X31556Y22384D01*
G01X31476Y22390D01*
G01X31402Y22393D01*
G01X31336Y22395D01*
G01X31278Y22393D01*
G01X31231Y22390D01*
G01X31196Y22385D01*
G01X31174Y22377D01*
G01X31166Y22368D01*
G01X31175Y22351D01*
G01X31200Y22323D01*
G01X31239Y22286D01*
G01X31290Y22240D01*
G01X31351Y22187D01*
G01X31422Y22130D01*
G01X31500Y22068D01*
G01X31666Y21940D01*
G01X31744Y21879D01*
G01X31815Y21821D01*
G01X31876Y21769D01*
G01X31928Y21723D01*
G01X31966Y21686D01*
G01X31991Y21659D01*
G01X32000Y21643D01*
G01X31985Y21625D01*
G01X31941Y21615D01*
G01X31875Y21612D01*
G01X31793Y21617D01*
G01X31712Y21625D01*
G01X31645Y21629D01*
G01X31600Y21629D01*
G01X31583Y21626D01*
G01X31592Y21618D01*
G01X31617Y21601D01*
G01X31655Y21577D01*
G01X31707Y21546D01*
G01X31770Y21509D01*
G01X31841Y21467D01*
G01X31920Y21422D01*
G01X32004Y21374D01*
G01X32090Y21326D01*
G01X32171Y21278D01*
G01X32245Y21233D01*
G01X32312Y21192D01*
G01X32368Y21155D01*
G01X32413Y21125D01*
G01X32443Y21102D01*
G01X32458Y21087D01*
G01X32450Y21068D01*
G01X32405Y21052D01*
G01X32330Y21041D01*
G01X32232Y21036D01*
G01X31973Y21035D01*
G01X32394Y20777D01*
G01X32814Y20520D01*
G01X36266Y20544D01*
G01X36381Y20545D01*
G01X36494Y20546D01*
G01X36605Y20547D01*
G01X36714Y20548D01*
G01X36822Y20549D01*
G01X36928Y20550D01*
G01X37032Y20550D01*
G01X37134Y20551D01*
G01X37235Y20552D01*
G01X37431Y20554D01*
G01X37526Y20555D01*
G01X37620Y20556D01*
G01X37712Y20558D01*
G01X37803Y20559D01*
G01X37892Y20560D01*
G01X37980Y20562D01*
G01X38066Y20563D01*
G01X38151Y20564D01*
G01X38234Y20565D01*
G01X38316Y20567D01*
G01X38396Y20568D01*
G01X38476Y20570D01*
G01X38553Y20571D01*
G01X38630Y20573D01*
G01X38705Y20574D01*
G01X38779Y20576D01*
G01X38852Y20578D01*
G01X38923Y20579D01*
G01X38994Y20581D01*
G01X39063Y20583D01*
G01X39131Y20585D01*
G01X39198Y20587D01*
G01X39264Y20589D01*
G01X39329Y20591D01*
G01X39393Y20594D01*
G01X39517Y20598D01*
G01X39578Y20600D01*
G01X39638Y20603D01*
G01X39697Y20605D01*
G01X39755Y20608D01*
G01X39813Y20610D01*
G01X39925Y20616D01*
G01X39980Y20619D01*
G01X40088Y20625D01*
G01X40140Y20628D01*
G01X40193Y20632D01*
G01X40295Y20638D01*
G01X40345Y20642D01*
G01X40395Y20645D01*
G01X40493Y20653D01*
G01X40589Y20661D01*
G01X40730Y20673D01*
G01X40776Y20678D01*
G01X40822Y20682D01*
G01X40867Y20687D01*
G01X40913Y20692D01*
G01X40957Y20696D01*
G01X41047Y20706D01*
G01X41091Y20711D01*
G01X41136Y20717D01*
G01X41180Y20722D01*
G01X41223Y20728D01*
G01X41268Y20733D01*
G01X41311Y20739D01*
G01X41356Y20745D01*
G01X41399Y20751D01*
G01X41531Y20769D01*
G01X41620Y20783D01*
G01X41664Y20790D01*
G01X41709Y20796D01*
G01X41799Y20810D01*
G01X41844Y20818D01*
G01X41889Y20825D01*
G01X41982Y20840D01*
G01X42075Y20857D01*
G01X42171Y20873D01*
G01X42219Y20882D01*
G01X42268Y20890D01*
G01X42317Y20899D01*
G01X42404Y20915D01*
G01X42489Y20931D01*
G01X42573Y20947D01*
G01X42737Y20981D01*
G01X42817Y20999D01*
G01X42896Y21017D01*
G01X42974Y21035D01*
G01X43126Y21073D01*
G01X43200Y21092D01*
G01X43274Y21112D01*
G01X43345Y21133D01*
G01X43416Y21153D01*
G01X43487Y21174D01*
G01X43623Y21218D01*
G01X43689Y21240D01*
G01X43819Y21286D01*
G01X43882Y21310D01*
G01X43944Y21334D01*
G01X44005Y21359D01*
G01X44065Y21384D01*
G01X44124Y21409D01*
G01X44182Y21435D01*
G01X44239Y21461D01*
G01X44295Y21488D01*
G01X44350Y21515D01*
G01X44404Y21543D01*
G01X44456Y21571D01*
G01X44508Y21600D01*
G01X44559Y21629D01*
G01X44609Y21659D01*
G01X44658Y21689D01*
G01X44705Y21720D01*
G01X44753Y21751D01*
G01X44843Y21815D01*
G01X44888Y21848D01*
G01X44931Y21881D01*
G01X44973Y21915D01*
G01X45014Y21949D01*
G01X45055Y21984D01*
G01X45133Y22056D01*
G01X45171Y22092D01*
G01X45208Y22129D01*
G01X45243Y22166D01*
G01X45279Y22204D01*
G01X45313Y22244D01*
G01X45346Y22283D01*
G01X45379Y22323D01*
G01X45411Y22363D01*
G01X45441Y22404D01*
G01X45472Y22446D01*
G01X45501Y22488D01*
G01X45557Y22574D01*
G01X45584Y22618D01*
G01X45610Y22663D01*
G01X45635Y22708D01*
G01X45660Y22754D01*
G01X45684Y22800D01*
G01X45709Y22851D01*
G01X45731Y22899D01*
G01X45751Y22944D01*
G01X45769Y22988D01*
G01X45783Y23032D01*
G01X45796Y23077D01*
G01X45807Y23123D01*
G01X45816Y23172D01*
G01X45823Y23226D01*
G01X45829Y23283D01*
G01X45833Y23347D01*
G01X45837Y23419D01*
G01X45839Y23498D01*
G01X45840Y23587D01*
G01X45841Y23685D01*
G01X45841Y23882D01*
G01X45840Y23962D01*
G01X45839Y24036D01*
G01X45838Y24105D01*
G01X45836Y24170D01*
G01X45833Y24230D01*
G01X45829Y24287D01*
G01X45824Y24341D01*
G01X45819Y24391D01*
G01X45812Y24441D01*
G01X45805Y24488D01*
G01X45796Y24535D01*
G01X45786Y24581D01*
G01X45774Y24628D01*
G01X45761Y24675D01*
G01X45747Y24724D01*
G01X45731Y24774D01*
G01X45713Y24827D01*
G01X45694Y24883D01*
G01X45673Y24943D01*
G01X45657Y24986D01*
G01X45640Y25029D01*
G01X45606Y25117D01*
G01X45588Y25162D01*
G01X45570Y25206D01*
G01X45551Y25250D01*
G01X45532Y25295D01*
G01X45512Y25339D01*
G01X45492Y25385D01*
G01X45450Y25475D01*
G01X45406Y25567D01*
G01X45360Y25659D01*
G01X45337Y25706D01*
G01X45262Y25847D01*
G01X45210Y25943D01*
G01X45183Y25992D01*
G01X45155Y26040D01*
G01X45099Y26138D01*
G01X45070Y26187D01*
G01X45040Y26237D01*
G01X44979Y26338D01*
G01X44948Y26388D01*
G01X44916Y26440D01*
G01X44883Y26491D01*
G01X44850Y26543D01*
G01X44816Y26595D01*
G01X44781Y26647D01*
G01X44747Y26700D01*
G01X44711Y26754D01*
G01X44638Y26861D01*
G01X44601Y26916D01*
G01X44563Y26970D01*
G01X44524Y27026D01*
G01X44445Y27138D01*
G01X44405Y27194D01*
G01X44363Y27251D01*
G01X44322Y27309D01*
G01X44236Y27425D01*
G01X44148Y27543D01*
G01X44103Y27602D01*
G01X44057Y27663D01*
G01X44011Y27723D01*
G01X43964Y27785D01*
G01X43916Y27846D01*
G01X43818Y27971D01*
G01X43718Y28098D01*
G01X43666Y28163D01*
G01X43615Y28227D01*
G01X43562Y28293D01*
G01X43508Y28359D01*
G01X43455Y28425D01*
G01X43400Y28492D01*
G01X43344Y28560D01*
G01X43286Y28631D01*
G01X43229Y28700D01*
G01X43174Y28769D01*
G01X43120Y28835D01*
G01X43069Y28900D01*
G01X43020Y28963D01*
G01X42972Y29023D01*
G01X42928Y29081D01*
G01X42886Y29136D01*
G01X42847Y29187D01*
G01X42810Y29236D01*
G01X42777Y29281D01*
G01X42747Y29322D01*
G01X42722Y29359D01*
G01X42699Y29392D01*
G01X42681Y29420D01*
G01X42666Y29443D01*
G01X42657Y29461D01*
G01X42651Y29474D01*
G01X42650Y29482D01*
G01X42677Y29510D01*
G01X42738Y29545D01*
G01X42823Y29582D01*
G01X42924Y29617D01*
G01X43180Y29694D01*
G01X42938Y29797D01*
G01X42893Y29819D01*
G01X42849Y29845D01*
G01X42804Y29876D01*
G01X42761Y29911D01*
G01X42719Y29949D01*
G01X42678Y29991D01*
G01X42640Y30034D01*
G01X42604Y30080D01*
G01X42571Y30127D01*
G01X42541Y30174D01*
G01X42514Y30222D01*
G01X42492Y30270D01*
G01X42474Y30317D01*
G01X42460Y30363D01*
G01X42452Y30408D01*
G01X42449Y30449D01*
G01X42445Y30494D01*
G01X42432Y30516D01*
G37*

%LPD*%
G54D10*
G01X19706Y29767D02*
G01X29706Y29767D01*
G01X29706Y9099D01*
G01X19706Y9099D01*
G01X19706Y29767D01*
G01X34904Y7706D02*
G01X32928Y9681D01*
G01X28617Y5371D01*
G01X30593Y3395D01*
G01X34904Y7706D02*
G01X30593Y3395D01*
G01X33646Y6449D02*
G01X32727Y5529D01*
G01X34849Y3408D01*
G01X35768Y4327D01*
G01X33646Y6449D01*
G54D52*
G01X24050Y43237D02*
G01X24050Y43637D01*
G01X23650Y43637D01*
G01X20149Y43637D02*
G01X19749Y43637D01*
G01X19749Y43237D01*
G01X20149Y39337D02*
G01X19749Y39337D01*
G01X19749Y39737D01*
G01X23650Y39337D02*
G01X24050Y39337D01*
G01X24050Y39737D01*
G54D55*
G01X18985Y44231D02*
G01X19620Y44231D01*
G01X19620Y43368D01*
G01X19087Y43368D01*
G01X18985Y43368D01*
G01X18604Y43368D02*
G01X17994Y43368D01*
G01X17994Y44231D01*
G01X18528Y44231D01*
G01X18604Y44231D01*
G01X26385Y42531D02*
G01X27020Y42531D01*
G01X27020Y41668D01*
G01X26487Y41668D01*
G01X26385Y41668D01*
G01X26004Y41668D02*
G01X25394Y41668D01*
G01X25394Y42531D01*
G01X25928Y42531D01*
G01X26004Y42531D01*
G54D52*
G01X17549Y41599D02*
G01X18649Y41599D01*
G01X18649Y43200D01*
G01X17549Y43200D01*
G01X16749Y41599D02*
G01X15649Y41599D01*
G01X15649Y42599D01*
G01X15649Y43200D01*
G01X16749Y43200D01*
G54D55*
G01X26031Y38414D02*
G01X26031Y37779D01*
G01X25168Y37779D01*
G01X25168Y38312D01*
G01X25168Y38414D01*
G01X25168Y38795D02*
G01X25168Y39405D01*
G01X26031Y39405D01*
G01X26031Y38871D01*
G01X26031Y38795D01*
G01X24631Y38414D02*
G01X24631Y37779D01*
G01X23768Y37779D01*
G01X23768Y38312D01*
G01X23768Y38414D01*
G01X23768Y38795D02*
G01X23768Y39405D01*
G01X24631Y39405D01*
G01X24631Y38871D01*
G01X24631Y38795D01*
G01X26385Y41131D02*
G01X27020Y41131D01*
G01X27020Y40268D01*
G01X26487Y40268D01*
G01X26385Y40268D01*
G01X26004Y40268D02*
G01X25394Y40268D01*
G01X25394Y41131D01*
G01X25928Y41131D01*
G01X26004Y41131D01*
G54D10*
G01X10962Y30669D02*
G01X12810Y30669D01*
G01X12810Y28129D01*
G01X10962Y28129D01*
G01X9438Y28129D02*
G01X7579Y28129D01*
G01X7579Y30669D01*
G01X9438Y30669D01*
G01X17770Y16669D02*
G01X12944Y16669D01*
G01X12944Y14129D01*
G01X17770Y14129D01*
G01X17770Y16669D01*
G54D51*
G01X28140Y929D02*
G01X28140Y3469D01*
G01X23060Y3469D01*
G01X23060Y929D01*
G01X24965Y929D01*
G54D53*
G01X28140Y929D02*
G01X24965Y929D01*
G54D10*
G01X11800Y8049D02*
G01X13600Y8049D01*
G01X11800Y4949D02*
G01X13600Y4949D01*
G54D52*
G01X4799Y15199D02*
G01X5899Y15199D01*
G01X5899Y16800D01*
G01X4799Y16800D01*
G01X3999Y15199D02*
G01X2899Y15199D01*
G01X2899Y16199D01*
G01X2899Y16800D01*
G01X3999Y16800D01*
G01X1499Y18600D02*
G01X1499Y17500D01*
G01X3100Y17500D01*
G01X3100Y18600D01*
G01X1499Y19399D02*
G01X1499Y20500D01*
G01X2499Y20500D01*
G01X3100Y20500D01*
G01X3100Y19399D01*
G01X15499Y2799D02*
G01X16599Y2799D01*
G01X16599Y4400D01*
G01X15499Y4400D01*
G01X14699Y2799D02*
G01X13599Y2799D01*
G01X13599Y3799D01*
G01X13599Y4400D01*
G01X14699Y4400D01*
G01X4400Y20500D02*
G01X3300Y20500D01*
G01X3300Y18899D01*
G01X4400Y18899D01*
G01X5200Y20500D02*
G01X6300Y20500D01*
G01X6300Y19500D01*
G01X6300Y18899D01*
G01X5200Y18899D01*
G01X21199Y1099D02*
G01X22299Y1099D01*
G01X22299Y2700D01*
G01X21199Y2700D01*
G01X20399Y1099D02*
G01X19299Y1099D01*
G01X19299Y2099D01*
G01X19299Y2700D01*
G01X20399Y2700D01*
G01X17699Y28199D02*
G01X18799Y28199D01*
G01X18799Y29800D01*
G01X17699Y29800D01*
G01X16899Y28199D02*
G01X15799Y28199D01*
G01X15799Y29199D01*
G01X15799Y29800D01*
G01X16899Y29800D01*
G54D55*
G01X14785Y28731D02*
G01X15420Y28731D01*
G01X15420Y27868D01*
G01X14886Y27868D01*
G01X14785Y27868D01*
G01X14404Y27868D02*
G01X13794Y27868D01*
G01X13794Y28731D01*
G01X14327Y28731D01*
G01X14404Y28731D01*
G54D10*
G01X7494Y40462D02*
G01X1837Y34805D01*
G01X7565Y39528D02*
G01X2778Y34741D01*
G01X7480Y40447D02*
G01X7565Y40363D01*
G01X7565Y39528D01*
G01X1873Y34812D02*
G01X1943Y34741D01*
G01X2778Y34741D01*
G01X10415Y35251D02*
G01X9966Y34802D01*
G01X7482Y32318D02*
G01X7048Y31884D01*
G01X10833Y37123D02*
G01X10211Y37745D01*
G01X8465Y39491D02*
G01X7494Y40462D01*
G01X5176Y31466D02*
G01X4554Y32088D01*
G01X2808Y33834D02*
G01X1922Y34720D01*
G01X8938Y8729D02*
G01X7089Y8729D01*
G01X7089Y11269D01*
G01X8938Y11269D01*
G01X10462Y11269D02*
G01X12320Y11269D01*
G01X12320Y8729D01*
G01X10462Y8729D01*
G01X19438Y8015D02*
G01X18041Y8015D01*
G01X22308Y8015D02*
G01X20911Y8015D01*
G01X22308Y4636D02*
G01X22308Y4459D01*
G01X18041Y4459D01*
G01X18041Y8015D01*
G01X22308Y8015D02*
G01X22308Y4636D01*
G01X6549Y26749D02*
G01X1449Y26749D01*
G01X1450Y26749D02*
G01X1450Y22649D01*
G01X1450Y22649D02*
G01X6550Y22649D01*
G01X6549Y25500D02*
G01X6549Y26749D01*
G01X6549Y23899D02*
G01X6549Y22649D01*
G54D57*
G01X13244Y32921D02*
G01X19944Y32921D01*
G01X19944Y36170D01*
G01X13244Y36170D01*
G01X13244Y32921D01*
G54D51*
G01X43886Y18413D02*
G01X44561Y17738D01*
G01X43352Y17558D02*
G01X43320Y17655D01*
G01X43320Y17783D01*
G01X43352Y17880D01*
G01X43481Y18008D01*
G01X43577Y18040D01*
G01X43706Y18040D01*
G01X43802Y18008D01*
G01X43931Y17944D01*
G01X44091Y17783D01*
G01X44156Y17655D01*
G01X44188Y17558D01*
G01X44188Y17430D01*
G01X44156Y17333D01*
G01X44027Y17205D01*
G01X43931Y17172D01*
G01X43802Y17172D01*
G01X43706Y17205D01*
G01X42626Y16960D02*
G01X42626Y17089D01*
G01X42690Y17217D01*
G01X42819Y17346D01*
G01X42947Y17410D01*
G01X43076Y17410D01*
G01X43140Y17346D01*
G01X43172Y17250D01*
G01X43172Y17185D01*
G01X43140Y17089D01*
G01X43011Y16832D01*
G01X42979Y16735D01*
G01X42979Y16671D01*
G01X43011Y16575D01*
G01X43108Y16478D01*
G01X43236Y16478D01*
G01X43365Y16542D01*
G01X43493Y16671D01*
G01X43558Y16800D01*
G01X43558Y16928D01*
G01X41597Y16125D02*
G01X42272Y15450D01*
G01X41822Y16350D02*
G01X41372Y15900D01*
G01X40903Y15430D02*
G01X41835Y15013D01*
G01X40903Y15430D02*
G01X41321Y14498D01*
G01X41514Y15141D02*
G01X41192Y14820D01*
G01X40434Y14961D02*
G01X41109Y14286D01*
G01X40434Y14961D02*
G01X40144Y14672D01*
G01X40080Y14543D01*
G01X40080Y14479D01*
G01X40112Y14383D01*
G01X40177Y14318D01*
G01X40273Y14286D01*
G01X40337Y14286D01*
G01X40466Y14350D01*
G01X40755Y14640D01*
G01X40530Y14415D02*
G01X40659Y13836D01*
G01X39450Y13656D02*
G01X39418Y13753D01*
G01X39418Y13881D01*
G01X39450Y13978D01*
G01X39579Y14106D01*
G01X39675Y14138D01*
G01X39804Y14138D01*
G01X39900Y14106D01*
G01X40029Y14042D01*
G01X40189Y13881D01*
G01X40254Y13753D01*
G01X40286Y13656D01*
G01X40286Y13528D01*
G01X40254Y13431D01*
G01X40125Y13303D01*
G01X40029Y13270D01*
G01X39900Y13270D01*
G01X39804Y13303D01*
G01X38422Y13142D02*
G01X38614Y12949D01*
G01X38499Y12769D02*
G01X38402Y12737D01*
G01X38209Y12737D01*
G01X38884Y12062D01*
G01X37804Y11882D02*
G01X37933Y11818D01*
G01X38062Y11818D01*
G01X38190Y11882D01*
G01X38222Y11914D01*
G01X38287Y12043D01*
G01X38287Y12171D01*
G01X38222Y12300D01*
G01X38190Y12332D01*
G01X38062Y12396D01*
G01X37933Y12396D01*
G01X37804Y12332D01*
G01X37772Y12300D01*
G01X37708Y12171D01*
G01X37708Y12043D01*
G01X37804Y11882D01*
G01X37965Y11721D01*
G01X38158Y11593D01*
G01X38319Y11561D01*
G01X38447Y11625D01*
G01X38512Y11689D01*
G01X38576Y11818D01*
G01X38544Y11914D01*
G01X37753Y11509D02*
G01X37175Y10931D01*
G01X36416Y11136D02*
G01X36609Y10943D01*
G01X36493Y10699D02*
G01X36461Y10731D01*
G01X36365Y10763D01*
G01X36300Y10763D01*
G01X36204Y10731D01*
G01X36075Y10603D01*
G01X36043Y10506D01*
G01X36043Y10442D01*
G01X36075Y10346D01*
G01X36140Y10281D01*
G01X36236Y10249D01*
G01X36397Y10217D01*
G01X37040Y10217D01*
G01X36590Y9767D01*
G01X35510Y10037D02*
G01X35638Y10101D01*
G01X35799Y10069D01*
G01X35992Y9941D01*
G01X36088Y9844D01*
G01X36217Y9651D01*
G01X36249Y9491D01*
G01X36185Y9362D01*
G01X36120Y9298D01*
G01X35992Y9234D01*
G01X35831Y9266D01*
G01X35638Y9394D01*
G01X35542Y9491D01*
G01X35413Y9684D01*
G01X35381Y9844D01*
G01X35445Y9973D01*
G01X35510Y10037D01*
G01X43736Y16363D02*
G01X44411Y15688D01*
G01X43736Y16363D02*
G01X43318Y15945D01*
G01X44057Y16042D02*
G01X43800Y15785D01*
G01X43106Y15733D02*
G01X43781Y15058D01*
G01X42894Y15521D02*
G01X42894Y15457D01*
G01X42829Y15457D01*
G01X42829Y15521D01*
G01X42894Y15521D01*
G01X43086Y15264D02*
G01X43536Y14814D01*
G01X42456Y14634D02*
G01X42971Y14120D01*
G01X43099Y14055D01*
G01X43163Y14055D01*
G01X43260Y14087D01*
G01X43356Y14184D01*
G01X43388Y14280D01*
G01X42553Y14537D02*
G01X42553Y14666D01*
G01X42585Y14762D01*
G01X42681Y14859D01*
G01X42778Y14891D01*
G01X42906Y14891D01*
G01X43035Y14827D01*
G01X43099Y14762D01*
G01X43163Y14634D01*
G01X43163Y14505D01*
G01X43131Y14409D01*
G01X43035Y14312D01*
G01X42939Y14280D01*
G01X42810Y14280D01*
G01X42019Y14647D02*
G01X42694Y13972D01*
G01X42373Y14293D02*
G01X42180Y14293D01*
G01X42084Y14261D01*
G01X41987Y14165D01*
G01X41955Y14068D01*
G01X42019Y13940D01*
G01X42341Y13618D01*
G01X41357Y13985D02*
G01X41904Y13438D01*
G01X41968Y13310D01*
G01X41936Y13213D01*
G01X41871Y13149D01*
G01X41679Y13856D02*
G01X41454Y13631D01*
G01X40168Y12474D02*
G01X40136Y12570D01*
G01X40136Y12699D01*
G01X40168Y12795D01*
G01X40296Y12924D01*
G01X40393Y12956D01*
G01X40521Y12956D01*
G01X40618Y12924D01*
G01X40746Y12860D01*
G01X40907Y12699D01*
G01X40971Y12570D01*
G01X41004Y12474D01*
G01X41004Y12345D01*
G01X40971Y12249D01*
G01X40843Y12120D01*
G01X40746Y12088D01*
G01X40618Y12088D01*
G01X40521Y12120D01*
G01X39859Y12037D02*
G01X39956Y12069D01*
G01X40084Y12069D01*
G01X40213Y12005D01*
G01X40277Y11940D01*
G01X40342Y11812D01*
G01X40342Y11683D01*
G01X40309Y11587D01*
G01X40213Y11490D01*
G01X40117Y11458D01*
G01X39988Y11458D01*
G01X39859Y11523D01*
G01X39795Y11587D01*
G01X39731Y11715D01*
G01X39731Y11844D01*
G01X39763Y11940D01*
G01X39859Y12037D01*
G01X39390Y11568D02*
G01X39840Y11118D01*
G01X39519Y11439D02*
G01X39326Y11439D01*
G01X39229Y11407D01*
G01X39133Y11310D01*
G01X39101Y11214D01*
G01X39165Y11085D01*
G01X39487Y10764D01*
G01X38503Y11130D02*
G01X39049Y10584D01*
G01X39114Y10456D01*
G01X39082Y10359D01*
G01X39017Y10295D01*
G01X38824Y11002D02*
G01X38599Y10777D01*
G01X38355Y10533D02*
G01X38805Y10083D01*
G01X38548Y10340D02*
G01X38419Y10404D01*
G01X38291Y10404D01*
G01X38194Y10372D01*
G01X38098Y10276D01*
G01X37725Y9903D02*
G01X37822Y9935D01*
G01X37950Y9935D01*
G01X38079Y9871D01*
G01X38143Y9806D01*
G01X38207Y9678D01*
G01X38207Y9549D01*
G01X38175Y9453D01*
G01X38079Y9356D01*
G01X37982Y9324D01*
G01X37854Y9324D01*
G01X37725Y9388D01*
G01X37661Y9453D01*
G01X37597Y9581D01*
G01X37597Y9710D01*
G01X37629Y9806D01*
G01X37725Y9903D01*
G01X37031Y9658D02*
G01X37706Y8983D01*
G01X36819Y9446D02*
G01X37494Y8771D01*
G01X37025Y8816D02*
G01X36639Y8431D01*
G01X36575Y8495D01*
G01X36542Y8591D01*
G01X36542Y8656D01*
G01X36575Y8752D01*
G01X36671Y8848D01*
G01X36767Y8881D01*
G01X36896Y8881D01*
G01X37025Y8816D01*
G01X37089Y8752D01*
G01X37153Y8623D01*
G01X37153Y8495D01*
G01X37121Y8398D01*
G01X37025Y8302D01*
G01X36928Y8270D01*
G01X36800Y8270D01*
G01X36234Y8411D02*
G01X36684Y7961D01*
G01X36427Y8218D02*
G01X36298Y8283D01*
G01X36170Y8283D01*
G01X36073Y8251D01*
G01X35977Y8154D01*
G01X41314Y11335D02*
G01X41218Y11302D01*
G01X41025Y11302D01*
G01X41700Y10627D01*
G01X41295Y10544D02*
G01X41359Y10544D01*
G01X41359Y10480D01*
G01X41295Y10480D01*
G01X41295Y10544D01*
G01X40344Y10621D02*
G01X40472Y10685D01*
G01X40633Y10653D01*
G01X40826Y10525D01*
G01X40922Y10428D01*
G01X41051Y10235D01*
G01X41083Y10075D01*
G01X41018Y9946D01*
G01X40954Y9882D01*
G01X40826Y9817D01*
G01X40665Y9850D01*
G01X40472Y9978D01*
G01X40376Y10075D01*
G01X40247Y10267D01*
G01X40215Y10428D01*
G01X40279Y10557D01*
G01X40344Y10621D01*
G54D55*
G01X28296Y8976D02*
G01X28296Y9123D01*
G01X28370Y9268D01*
G01X28517Y9416D01*
G01X28662Y9489D01*
G01X28810Y9489D01*
G01X28883Y9416D01*
G01X28921Y9306D01*
G01X28921Y9231D01*
G01X28883Y9121D01*
G01X28736Y8827D01*
G01X28700Y8719D01*
G01X28700Y8643D01*
G01X28738Y8534D01*
G01X28847Y8424D01*
G01X28995Y8424D01*
G01X29140Y8498D01*
G01X29287Y8645D01*
G01X29361Y8791D01*
G01X29361Y8938D01*
G01X27944Y8843D02*
G01X28529Y7887D01*
G01X27576Y8475D02*
G01X28529Y7887D01*
G01X27576Y8475D02*
G01X28163Y7521D01*
G01X27209Y8108D02*
G01X28163Y7521D01*
G01X27114Y7718D02*
G01X27003Y7682D01*
G01X26782Y7681D01*
G01X27552Y6910D01*
G01X22849Y45553D02*
G01X22849Y44773D01*
G01X22798Y44618D01*
G01X22694Y44514D01*
G01X22537Y44463D01*
G01X22433Y44463D01*
G01X22278Y44514D01*
G01X22173Y44618D01*
G01X22123Y44773D01*
G01X22123Y45553D01*
G01X21155Y45553D02*
G01X21676Y45553D01*
G01X21726Y45085D01*
G01X21676Y45136D01*
G01X21518Y45189D01*
G01X21363Y45189D01*
G01X21208Y45136D01*
G01X21104Y45034D01*
G01X21051Y44877D01*
G01X21051Y44773D01*
G01X21104Y44618D01*
G01X21208Y44514D01*
G01X21363Y44463D01*
G01X21518Y44463D01*
G01X21676Y44514D01*
G01X21726Y44564D01*
G01X21780Y44669D01*
G01X16969Y44394D02*
G01X17023Y44498D01*
G01X17127Y44602D01*
G01X17228Y44653D01*
G01X17437Y44653D01*
G01X17541Y44602D01*
G01X17645Y44498D01*
G01X17698Y44394D01*
G01X17749Y44236D01*
G01X17749Y43977D01*
G01X17698Y43822D01*
G01X17645Y43718D01*
G01X17541Y43614D01*
G01X17437Y43563D01*
G01X17228Y43563D01*
G01X17127Y43614D01*
G01X17023Y43718D01*
G01X16969Y43822D01*
G01X16626Y44444D02*
G01X16522Y44498D01*
G01X16367Y44653D01*
G01X16367Y43563D01*
G01X15971Y44394D02*
G01X15971Y44444D01*
G01X15920Y44548D01*
G01X15870Y44602D01*
G01X15765Y44653D01*
G01X15557Y44653D01*
G01X15453Y44602D01*
G01X15400Y44548D01*
G01X15349Y44444D01*
G01X15349Y44340D01*
G01X15400Y44236D01*
G01X15504Y44081D01*
G01X16024Y43563D01*
G01X15298Y43563D01*
G01X29020Y42494D02*
G01X29073Y42598D01*
G01X29177Y42702D01*
G01X29279Y42753D01*
G01X29487Y42753D01*
G01X29591Y42702D01*
G01X29695Y42598D01*
G01X29749Y42494D01*
G01X29800Y42336D01*
G01X29800Y42077D01*
G01X29749Y41922D01*
G01X29695Y41818D01*
G01X29591Y41714D01*
G01X29487Y41663D01*
G01X29279Y41663D01*
G01X29177Y41714D01*
G01X29073Y41818D01*
G01X29020Y41922D01*
G01X28677Y42544D02*
G01X28573Y42598D01*
G01X28418Y42753D01*
G01X28418Y41663D01*
G01X27450Y42753D02*
G01X27971Y42753D01*
G01X28022Y42285D01*
G01X27971Y42336D01*
G01X27816Y42389D01*
G01X27658Y42389D01*
G01X27503Y42336D01*
G01X27399Y42234D01*
G01X27348Y42077D01*
G01X27348Y41973D01*
G01X27399Y41818D01*
G01X27503Y41714D01*
G01X27658Y41663D01*
G01X27816Y41663D01*
G01X27971Y41714D01*
G01X28022Y41765D01*
G01X28075Y41869D01*
G01X12899Y41296D02*
G01X12899Y42386D01*
G01X12899Y41296D02*
G01X13367Y41296D01*
G01X13522Y41347D01*
G01X13575Y41401D01*
G01X13626Y41505D01*
G01X13626Y41609D01*
G01X13575Y41713D01*
G01X13522Y41764D01*
G01X13367Y41815D01*
G01X12899Y41815D01*
G01X13262Y41815D02*
G01X13626Y42386D01*
G01X13969Y41505D02*
G01X14073Y41451D01*
G01X14230Y41296D01*
G01X14230Y42386D01*
G01X15195Y41296D02*
G01X14677Y41296D01*
G01X14624Y41764D01*
G01X14677Y41713D01*
G01X14832Y41660D01*
G01X14987Y41660D01*
G01X15145Y41713D01*
G01X15249Y41815D01*
G01X15300Y41972D01*
G01X15300Y42076D01*
G01X15249Y42231D01*
G01X15145Y42335D01*
G01X14987Y42386D01*
G01X14832Y42386D01*
G01X14677Y42335D01*
G01X14624Y42284D01*
G01X14573Y42180D01*
G01X27243Y38029D02*
G01X27347Y37976D01*
G01X27451Y37872D01*
G01X27502Y37770D01*
G01X27502Y37562D01*
G01X27451Y37458D01*
G01X27347Y37354D01*
G01X27243Y37300D01*
G01X27086Y37250D01*
G01X26827Y37250D01*
G01X26672Y37300D01*
G01X26567Y37354D01*
G01X26463Y37458D01*
G01X26413Y37562D01*
G01X26413Y37770D01*
G01X26463Y37872D01*
G01X26567Y37976D01*
G01X26672Y38029D01*
G01X27294Y38372D02*
G01X27347Y38476D01*
G01X27502Y38631D01*
G01X26413Y38631D01*
G01X27502Y39078D02*
G01X27502Y39650D01*
G01X27086Y39337D01*
G01X27086Y39495D01*
G01X27035Y39599D01*
G01X26984Y39650D01*
G01X26827Y39701D01*
G01X26722Y39701D01*
G01X26567Y39650D01*
G01X26463Y39546D01*
G01X26413Y39391D01*
G01X26413Y39233D01*
G01X26463Y39078D01*
G01X26514Y39028D01*
G01X26618Y38974D01*
G01X23343Y36929D02*
G01X23447Y36876D01*
G01X23551Y36772D01*
G01X23602Y36670D01*
G01X23602Y36462D01*
G01X23551Y36358D01*
G01X23447Y36254D01*
G01X23343Y36200D01*
G01X23186Y36149D01*
G01X22927Y36149D01*
G01X22772Y36200D01*
G01X22668Y36254D01*
G01X22563Y36358D01*
G01X22513Y36462D01*
G01X22513Y36670D01*
G01X22563Y36772D01*
G01X22668Y36876D01*
G01X22772Y36929D01*
G01X23394Y37272D02*
G01X23447Y37376D01*
G01X23602Y37531D01*
G01X22513Y37531D01*
G01X23602Y38395D02*
G01X22876Y37874D01*
G01X22876Y38654D01*
G01X23602Y38395D02*
G01X22513Y38395D01*
G01X29220Y41094D02*
G01X29273Y41198D01*
G01X29377Y41302D01*
G01X29479Y41353D01*
G01X29687Y41353D01*
G01X29791Y41302D01*
G01X29895Y41198D01*
G01X29949Y41094D01*
G01X30000Y40936D01*
G01X30000Y40677D01*
G01X29949Y40522D01*
G01X29895Y40418D01*
G01X29791Y40314D01*
G01X29687Y40263D01*
G01X29479Y40263D01*
G01X29377Y40314D01*
G01X29273Y40418D01*
G01X29220Y40522D01*
G01X28877Y41144D02*
G01X28773Y41198D01*
G01X28618Y41353D01*
G01X28618Y40263D01*
G01X27650Y41198D02*
G01X27703Y41302D01*
G01X27858Y41353D01*
G01X27962Y41353D01*
G01X28120Y41302D01*
G01X28222Y41144D01*
G01X28275Y40885D01*
G01X28275Y40626D01*
G01X28222Y40418D01*
G01X28120Y40314D01*
G01X27962Y40263D01*
G01X27912Y40263D01*
G01X27754Y40314D01*
G01X27650Y40418D01*
G01X27599Y40573D01*
G01X27599Y40626D01*
G01X27650Y40781D01*
G01X27754Y40885D01*
G01X27912Y40936D01*
G01X27962Y40936D01*
G01X28120Y40885D01*
G01X28222Y40781D01*
G01X28275Y40626D01*
G01X10520Y27394D02*
G01X10573Y27498D01*
G01X10677Y27602D01*
G01X10779Y27653D01*
G01X10987Y27653D01*
G01X11091Y27602D01*
G01X11195Y27498D01*
G01X11249Y27394D01*
G01X11300Y27236D01*
G01X11300Y26977D01*
G01X11249Y26822D01*
G01X11195Y26718D01*
G01X11091Y26614D01*
G01X10987Y26563D01*
G01X10779Y26563D01*
G01X10677Y26614D01*
G01X10573Y26718D01*
G01X10520Y26822D01*
G01X10177Y27444D02*
G01X10073Y27498D01*
G01X9918Y27653D01*
G01X9918Y26563D01*
G01X9575Y27444D02*
G01X9471Y27498D01*
G01X9316Y27653D01*
G01X9316Y26563D01*
G01X16479Y18053D02*
G01X16479Y17222D01*
G01X16532Y17065D01*
G01X16583Y17014D01*
G01X16687Y16963D01*
G01X16791Y16963D01*
G01X16895Y17014D01*
G01X16949Y17065D01*
G01X17000Y17222D01*
G01X17000Y17326D01*
G01X16136Y18053D02*
G01X16136Y16963D01*
G01X16136Y18053D02*
G01X15669Y18053D01*
G01X15514Y18002D01*
G01X15463Y17948D01*
G01X15409Y17844D01*
G01X15409Y17689D01*
G01X15463Y17585D01*
G01X15514Y17534D01*
G01X15669Y17481D01*
G01X16136Y17481D01*
G01X15067Y18053D02*
G01X15067Y16963D01*
G01X15067Y18053D02*
G01X14703Y18053D01*
G01X14548Y18002D01*
G01X14444Y17898D01*
G01X14391Y17794D01*
G01X14340Y17636D01*
G01X14340Y17377D01*
G01X14391Y17222D01*
G01X14444Y17118D01*
G01X14548Y17014D01*
G01X14703Y16963D01*
G01X15067Y16963D01*
G01X13997Y17844D02*
G01X13893Y17898D01*
G01X13736Y18053D01*
G01X13736Y16963D01*
G01X27849Y5203D02*
G01X27849Y4113D01*
G01X27849Y5203D02*
G01X27433Y4113D01*
G01X27019Y5203D02*
G01X27433Y4113D01*
G01X27019Y5203D02*
G01X27019Y4113D01*
G01X26676Y5203D02*
G01X26676Y4113D01*
G01X26676Y5203D02*
G01X26208Y5203D01*
G01X26051Y5152D01*
G01X26000Y5099D01*
G01X25947Y4994D01*
G01X25947Y4890D01*
G01X26000Y4786D01*
G01X26051Y4735D01*
G01X26208Y4685D01*
G01X26676Y4685D02*
G01X26208Y4685D01*
G01X26051Y4631D01*
G01X26000Y4580D01*
G01X25947Y4476D01*
G01X25947Y4319D01*
G01X26000Y4215D01*
G01X26051Y4164D01*
G01X26208Y4113D01*
G01X26676Y4113D01*
G01X25190Y5203D02*
G01X25604Y4113D01*
G01X25190Y5203D02*
G01X24773Y4113D01*
G01X25449Y4476D02*
G01X24928Y4476D01*
G01X24067Y5203D02*
G01X24067Y4113D01*
G01X24430Y5203D02*
G01X23704Y5203D01*
G01X12146Y7299D02*
G01X12926Y7299D01*
G01X13081Y7249D01*
G01X13185Y7144D01*
G01X13236Y6987D01*
G01X13236Y6883D01*
G01X13185Y6728D01*
G01X13081Y6624D01*
G01X12926Y6573D01*
G01X12146Y6573D01*
G01X12146Y5709D02*
G01X12873Y6230D01*
G01X12873Y5450D01*
G01X12146Y5709D02*
G01X13236Y5709D01*
G01X3200Y13746D02*
G01X3200Y14836D01*
G01X3200Y13746D02*
G01X3667Y13746D01*
G01X3822Y13797D01*
G01X3875Y13850D01*
G01X3926Y13955D01*
G01X3926Y14059D01*
G01X3875Y14163D01*
G01X3822Y14214D01*
G01X3667Y14264D01*
G01X3200Y14264D01*
G01X3563Y14264D02*
G01X3926Y14836D01*
G01X4269Y13955D02*
G01X4373Y13901D01*
G01X4530Y13746D01*
G01X4530Y14836D01*
G01X4873Y13955D02*
G01X4978Y13901D01*
G01X5132Y13746D01*
G01X5132Y14836D01*
G01X1646Y17199D02*
G01X2736Y17199D01*
G01X1646Y17199D02*
G01X1646Y16732D01*
G01X1697Y16577D01*
G01X1750Y16524D01*
G01X1855Y16473D01*
G01X1959Y16473D01*
G01X2063Y16524D01*
G01X2114Y16577D01*
G01X2165Y16732D01*
G01X2165Y17199D01*
G01X2165Y16836D02*
G01X2736Y16473D01*
G01X1855Y16130D02*
G01X1801Y16026D01*
G01X1646Y15868D01*
G01X2736Y15868D01*
G01X1646Y15216D02*
G01X1697Y15371D01*
G01X1855Y15475D01*
G01X2114Y15526D01*
G01X2269Y15526D01*
G01X2530Y15475D01*
G01X2685Y15371D01*
G01X2736Y15216D01*
G01X2736Y15112D01*
G01X2685Y14954D01*
G01X2530Y14850D01*
G01X2269Y14799D01*
G01X2114Y14799D01*
G01X1855Y14850D01*
G01X1697Y14954D01*
G01X1646Y15112D01*
G01X1646Y15216D01*
G01X17100Y2746D02*
G01X17100Y3836D01*
G01X17100Y2746D02*
G01X17567Y2746D01*
G01X17722Y2797D01*
G01X17775Y2850D01*
G01X17826Y2955D01*
G01X17826Y3059D01*
G01X17775Y3163D01*
G01X17722Y3214D01*
G01X17567Y3264D01*
G01X17100Y3264D01*
G01X17463Y3264D02*
G01X17826Y3836D01*
G01X18169Y2955D02*
G01X18273Y2901D01*
G01X18430Y2746D01*
G01X18430Y3836D01*
G01X19292Y2746D02*
G01X18773Y3473D01*
G01X19551Y3473D01*
G01X19292Y2746D02*
G01X19292Y3836D01*
G01X6000Y18353D02*
G01X6000Y17263D01*
G01X6000Y18353D02*
G01X5532Y18353D01*
G01X5377Y18302D01*
G01X5324Y18248D01*
G01X5273Y18144D01*
G01X5273Y18040D01*
G01X5324Y17936D01*
G01X5377Y17885D01*
G01X5532Y17834D01*
G01X6000Y17834D01*
G01X5636Y17834D02*
G01X5273Y17263D01*
G01X4930Y18144D02*
G01X4826Y18198D01*
G01X4669Y18353D01*
G01X4669Y17263D01*
G01X4275Y18094D02*
G01X4275Y18144D01*
G01X4222Y18248D01*
G01X4171Y18302D01*
G01X4067Y18353D01*
G01X3858Y18353D01*
G01X3754Y18302D01*
G01X3703Y18248D01*
G01X3650Y18144D01*
G01X3650Y18040D01*
G01X3703Y17936D01*
G01X3807Y17781D01*
G01X4326Y17263D01*
G01X3599Y17263D01*
G01X16600Y1346D02*
G01X16600Y2436D01*
G01X16600Y1346D02*
G01X17067Y1346D01*
G01X17222Y1397D01*
G01X17275Y1450D01*
G01X17326Y1555D01*
G01X17326Y1659D01*
G01X17275Y1763D01*
G01X17222Y1814D01*
G01X17067Y1864D01*
G01X16600Y1864D01*
G01X16963Y1864D02*
G01X17326Y2436D01*
G01X17669Y1555D02*
G01X17773Y1501D01*
G01X17930Y1346D01*
G01X17930Y2436D01*
G01X18378Y1346D02*
G01X18949Y1346D01*
G01X18637Y1763D01*
G01X18792Y1763D01*
G01X18896Y1814D01*
G01X18949Y1864D01*
G01X19000Y2022D01*
G01X19000Y2126D01*
G01X18949Y2281D01*
G01X18845Y2385D01*
G01X18687Y2436D01*
G01X18532Y2436D01*
G01X18378Y2385D01*
G01X18324Y2334D01*
G01X18273Y2230D01*
G01X20079Y28705D02*
G01X20026Y28601D01*
G01X19921Y28497D01*
G01X19820Y28446D01*
G01X19612Y28446D01*
G01X19507Y28497D01*
G01X19403Y28601D01*
G01X19350Y28705D01*
G01X19299Y28863D01*
G01X19299Y29122D01*
G01X19350Y29277D01*
G01X19403Y29381D01*
G01X19507Y29485D01*
G01X19612Y29536D01*
G01X19820Y29536D01*
G01X19921Y29485D01*
G01X20026Y29381D01*
G01X20079Y29277D01*
G01X21098Y28810D02*
G01X21044Y28965D01*
G01X20940Y29069D01*
G01X20785Y29122D01*
G01X20734Y29122D01*
G01X20577Y29069D01*
G01X20473Y28965D01*
G01X20422Y28810D01*
G01X20422Y28759D01*
G01X20473Y28601D01*
G01X20577Y28497D01*
G01X20734Y28446D01*
G01X20785Y28446D01*
G01X20940Y28497D01*
G01X21044Y28601D01*
G01X21098Y28810D01*
G01X21098Y29069D01*
G01X21044Y29330D01*
G01X20940Y29485D01*
G01X20785Y29536D01*
G01X20681Y29536D01*
G01X20526Y29485D01*
G01X20473Y29381D01*
G01X14519Y27294D02*
G01X14573Y27398D01*
G01X14677Y27502D01*
G01X14778Y27553D01*
G01X14987Y27553D01*
G01X15091Y27502D01*
G01X15195Y27398D01*
G01X15248Y27294D01*
G01X15299Y27136D01*
G01X15299Y26877D01*
G01X15248Y26722D01*
G01X15195Y26618D01*
G01X15091Y26514D01*
G01X14987Y26463D01*
G01X14778Y26463D01*
G01X14677Y26514D01*
G01X14573Y26618D01*
G01X14519Y26722D01*
G01X13917Y27553D02*
G01X14072Y27502D01*
G01X14126Y27398D01*
G01X14126Y27294D01*
G01X14072Y27189D01*
G01X13968Y27136D01*
G01X13762Y27085D01*
G01X13605Y27035D01*
G01X13501Y26930D01*
G01X13450Y26826D01*
G01X13450Y26669D01*
G01X13501Y26565D01*
G01X13554Y26514D01*
G01X13709Y26463D01*
G01X13917Y26463D01*
G01X14072Y26514D01*
G01X14126Y26565D01*
G01X14177Y26669D01*
G01X14177Y26826D01*
G01X14126Y26930D01*
G01X14022Y27035D01*
G01X13864Y27085D01*
G01X13658Y27136D01*
G01X13554Y27189D01*
G01X13501Y27294D01*
G01X13501Y27398D01*
G01X13554Y27502D01*
G01X13709Y27553D01*
G01X13917Y27553D01*
G01X7392Y37528D02*
G01X7943Y36976D01*
G01X8017Y36831D01*
G01X8017Y36684D01*
G01X7942Y36536D01*
G01X7868Y36463D01*
G01X7723Y36389D01*
G01X7575Y36389D01*
G01X7430Y36463D01*
G01X6878Y37014D01*
G01X6230Y36147D02*
G01X6230Y36294D01*
G01X6305Y36441D01*
G01X6451Y36587D01*
G01X6598Y36662D01*
G01X6745Y36662D01*
G01X6819Y36588D01*
G01X6855Y36477D01*
G01X6857Y36403D01*
G01X6819Y36294D01*
G01X6672Y35999D01*
G01X6634Y35890D01*
G01X6636Y35816D01*
G01X6672Y35705D01*
G01X6781Y35595D01*
G01X6929Y35595D01*
G01X7076Y35671D01*
G01X7221Y35816D01*
G01X7297Y35963D01*
G01X7297Y36111D01*
G01X5878Y36014D02*
G01X6648Y35243D01*
G01X5878Y36014D02*
G01X5547Y35683D01*
G01X5474Y35538D01*
G01X5474Y35462D01*
G01X5512Y35353D01*
G01X5585Y35279D01*
G01X5695Y35241D01*
G01X5768Y35243D01*
G01X5914Y35317D01*
G01X6244Y35647D02*
G01X5914Y35317D01*
G01X5842Y35169D01*
G01X5840Y35096D01*
G01X5878Y34986D01*
G01X5989Y34875D01*
G01X6099Y34837D01*
G01X6173Y34839D01*
G01X6318Y34913D01*
G01X6648Y35243D01*
G01X5269Y35110D02*
G01X5158Y35074D01*
G01X4939Y35074D01*
G01X5709Y34304D01*
G01X9994Y9579D02*
G01X10098Y9526D01*
G01X10202Y9422D01*
G01X10253Y9320D01*
G01X10253Y9112D01*
G01X10202Y9008D01*
G01X10098Y8904D01*
G01X9994Y8850D01*
G01X9836Y8799D01*
G01X9577Y8799D01*
G01X9422Y8850D01*
G01X9318Y8904D01*
G01X9214Y9008D01*
G01X9163Y9112D01*
G01X9163Y9320D01*
G01X9214Y9422D01*
G01X9318Y9526D01*
G01X9422Y9579D01*
G01X10044Y9922D02*
G01X10098Y10026D01*
G01X10253Y10181D01*
G01X9163Y10181D01*
G01X10253Y10837D02*
G01X10202Y10679D01*
G01X10044Y10577D01*
G01X9785Y10524D01*
G01X9630Y10524D01*
G01X9369Y10577D01*
G01X9214Y10679D01*
G01X9163Y10837D01*
G01X9163Y10941D01*
G01X9214Y11096D01*
G01X9369Y11200D01*
G01X9630Y11251D01*
G01X9785Y11251D01*
G01X10044Y11200D01*
G01X10202Y11096D01*
G01X10253Y10941D01*
G01X10253Y10837D01*
G01X19646Y6587D02*
G01X19697Y6691D01*
G01X19801Y6795D01*
G01X19905Y6849D01*
G01X20063Y6899D01*
G01X20322Y6899D01*
G01X20477Y6849D01*
G01X20581Y6795D01*
G01X20685Y6691D01*
G01X20736Y6587D01*
G01X20736Y6379D01*
G01X20685Y6277D01*
G01X20581Y6173D01*
G01X20477Y6120D01*
G01X20322Y6069D01*
G01X20063Y6069D01*
G01X19905Y6120D01*
G01X19801Y6173D01*
G01X19697Y6277D01*
G01X19646Y6379D01*
G01X19646Y6587D01*
G01X20530Y6432D02*
G01X20840Y6120D01*
G01X19905Y5673D02*
G01X19855Y5673D01*
G01X19751Y5622D01*
G01X19697Y5568D01*
G01X19646Y5464D01*
G01X19646Y5259D01*
G01X19697Y5154D01*
G01X19751Y5101D01*
G01X19855Y5050D01*
G01X19959Y5050D01*
G01X20063Y5101D01*
G01X20218Y5205D01*
G01X20736Y5726D01*
G01X20736Y4997D01*
G01X8700Y25153D02*
G01X8700Y24373D01*
G01X8649Y24218D01*
G01X8545Y24114D01*
G01X8387Y24063D01*
G01X8283Y24063D01*
G01X8128Y24114D01*
G01X8024Y24218D01*
G01X7973Y24373D01*
G01X7973Y25153D01*
G01X7577Y24894D02*
G01X7577Y24944D01*
G01X7526Y25048D01*
G01X7473Y25102D01*
G01X7369Y25153D01*
G01X7163Y25153D01*
G01X7059Y25102D01*
G01X7005Y25048D01*
G01X6955Y24944D01*
G01X6955Y24840D01*
G01X7005Y24736D01*
G01X7109Y24581D01*
G01X7630Y24063D01*
G01X6901Y24063D01*
G01X15946Y35200D02*
G01X16726Y35200D01*
G01X16881Y35149D01*
G01X16985Y35045D01*
G01X17036Y34887D01*
G01X17036Y34783D01*
G01X16985Y34628D01*
G01X16881Y34524D01*
G01X16726Y34473D01*
G01X15946Y34473D01*
G01X16154Y34130D02*
G01X16101Y34026D01*
G01X15946Y33869D01*
G01X17036Y33869D01*
G54D12*
G75*
G01X22765Y7837D02*
G02X22765Y7835I150J-1D01*
G01*
G54D10*
G75*
G01X19438Y8015D02*
G03X20886Y8015I724J0D01*
G01*
G75*
G01X6500Y25500D02*
G03X6500Y23900I375J-800D01*
G01*
G75*
G01X14224Y8151D02*
G03X14224Y8151I-127J0D01*
G01*

%LPD*%
G36*
G01X24528Y43851D02*
G01X24506Y43851D01*
G01X24485Y43849D01*
G01X24465Y43845D01*
G01X24445Y43839D01*
G01X24425Y43831D01*
G01X24406Y43822D01*
G01X24389Y43810D01*
G01X24372Y43797D01*
G01X24357Y43782D01*
G01X24344Y43766D01*
G01X24332Y43749D01*
G01X24321Y43730D01*
G01X24313Y43711D01*
G01X24306Y43691D01*
G01X24302Y43670D01*
G01X24299Y43649D01*
G01X24298Y43628D01*
G01X24300Y43607D01*
G01X24303Y43587D01*
G01X24309Y43566D01*
G01X24316Y43546D01*
G01X24326Y43528D01*
G01X24337Y43510D01*
G01X24349Y43493D01*
G01X24364Y43477D01*
G01X24379Y43463D01*
G01X24396Y43451D01*
G01X24414Y43440D01*
G01X24434Y43431D01*
G01X24453Y43424D01*
G01X24474Y43419D01*
G01X24495Y43416D01*
G01X24516Y43414D01*
G01X24518Y43414D01*
G01X24539Y43416D01*
G01X24560Y43419D01*
G01X24581Y43424D01*
G01X24600Y43431D01*
G01X24620Y43440D01*
G01X24638Y43451D01*
G01X24655Y43463D01*
G01X24670Y43477D01*
G01X24685Y43493D01*
G01X24697Y43510D01*
G01X24708Y43528D01*
G01X24718Y43546D01*
G01X24725Y43566D01*
G01X24731Y43587D01*
G01X24734Y43607D01*
G01X24736Y43628D01*
G01X24735Y43649D01*
G01X24732Y43670D01*
G01X24728Y43691D01*
G01X24721Y43711D01*
G01X24713Y43730D01*
G01X24702Y43749D01*
G01X24690Y43766D01*
G01X24677Y43782D01*
G01X24662Y43797D01*
G01X24645Y43810D01*
G01X24628Y43822D01*
G01X24609Y43831D01*
G01X24589Y43839D01*
G01X24569Y43845D01*
G01X24549Y43849D01*
G01X24528Y43851D01*
G37*
M00*
M02*
